<?xml version="1.0" standalone="no"?>
<!DOCTYPE svg PUBLIC "-//W3C//DTD SVG 20010904//EN"
 "http://www.w3.org/TR/2001/REC-SVG-20010904/DTD/svg10.dtd">
<svg version="1.0" xmlns="http://www.w3.org/2000/svg"
 width="500.000000pt" height="500.000000pt" viewBox="0 0 500.000000 500.000000"
 preserveAspectRatio="xMidYMid meet">

<g transform="translate(0.000000,500.000000) scale(0.100000,-0.100000)"
fill="#000000" stroke="none">
<path d="M3275 3749 c-4 -6 -5 -12 -2 -15 2 -3 7 2 10 11 7 17 1 20 -8 4z"/>
<path d="M1943 3560 c0 -25 2 -35 4 -22 2 12 2 32 0 45 -2 12 -4 2 -4 -23z"/>
<path d="M1942 3465 c0 -16 2 -22 5 -12 2 9 2 23 0 30 -3 6 -5 -1 -5 -18z"/>
<path d="M2885 3300 c-19 -12 -24 -20 -14 -20 9 0 24 9 34 20 23 25 18 25 -20
0z"/>
<path d="M2940 3278 c0 -6 -7 -20 -17 -30 -15 -17 -15 -18 0 -18 10 0 17 7 17
16 0 8 4 13 9 10 10 -7 23 19 14 28 -10 10 -23 7 -23 -6z"/>
<path d="M2783 3260 c-24 -11 -43 -21 -43 -24 0 -4 102 33 109 40 11 10 -28 1
-66 -16z"/>
<path d="M1402 3235 c0 -16 2 -22 5 -12 2 9 2 23 0 30 -3 6 -5 -1 -5 -18z"/>
<path d="M2700 3215 c-7 -9 -8 -15 -2 -15 5 0 12 7 16 15 3 8 4 15 2 15 -2 0
-9 -7 -16 -15z"/>
<path d="M2874 3178 l-19 -23 23 19 c21 18 27 26 19 26 -2 0 -12 -10 -23 -22z"/>
<path d="M1397 3151 c3 -12 10 -21 15 -21 13 0 6 32 -9 37 -7 3 -9 -3 -6 -16z"/>
<path d="M2660 3160 c0 -5 5 -10 10 -10 6 0 10 5 10 10 0 6 -4 10 -10 10 -5 0
-10 -4 -10 -10z"/>
<path d="M2704 3124 c-11 -45 3 -105 31 -133 l27 -26 -26 39 c-14 21 -26 52
-26 67 0 26 3 29 32 25 17 -2 37 -11 45 -21 11 -16 13 -16 13 -3 0 24 -45 73
-69 75 -15 1 -23 -6 -27 -23z"/>
<path d="M2829 3123 c-13 -16 -12 -17 4 -4 16 13 21 21 13 21 -2 0 -10 -8 -17
-17z"/>
<path d="M2623 3103 c-13 -2 -23 -10 -23 -18 0 -8 -7 -11 -17 -9 -12 3 -22 -4
-30 -22 -12 -26 -12 -26 8 -8 22 20 69 20 81 1 11 -17 21 0 13 20 -5 10 -7 24
-6 31 1 6 1 11 -1 11 -2 -1 -13 -4 -25 -6z"/>
<path d="M2822 3066 c9 -28 8 -44 -6 -80 -23 -59 -41 -74 -64 -52 -30 26 -34
18 -5 -10 26 -26 25 -46 -2 -24 -13 11 -14 10 -9 -4 3 -9 12 -16 20 -16 8 0
14 -7 14 -15 0 -13 -4 -14 -21 -4 -16 8 -24 8 -33 -2 -8 -9 -7 -11 6 -6 11 4
19 -1 23 -14 9 -28 0 -34 -32 -20 l-28 12 25 -22 c18 -15 20 -19 7 -15 -10 3
-25 6 -33 6 -9 0 -13 4 -10 9 3 5 -2 8 -12 7 -12 -1 -16 5 -14 22 3 18 -2 22
-22 22 -13 0 -26 -5 -28 -11 -6 -18 -140 -18 -161 0 -16 13 -18 13 -15 1 2 -8
11 -21 21 -28 9 -7 17 -19 17 -26 0 -19 51 -116 61 -116 6 0 5 9 -2 21 -6 12
-15 35 -20 52 -8 29 -7 28 29 -14 20 -23 36 -48 34 -55 -1 -6 5 -17 13 -24 18
-15 19 -42 3 -58 -7 -7 -8 -12 -2 -12 5 0 15 5 22 12 7 7 12 8 12 2 -1 -15
-26 -44 -39 -44 -7 0 -10 -4 -6 -9 3 -5 1 -12 -5 -16 -5 -3 -10 -1 -10 6 0 9
-3 9 -14 -1 -8 -6 -28 -14 -43 -16 -25 -4 -36 4 -83 57 -30 34 -60 70 -65 80
-9 16 -13 17 -24 7 -11 -11 -12 -10 -6 1 5 9 1 19 -10 28 -11 7 -13 13 -6 13
7 0 10 4 6 10 -8 12 -35 1 -35 -15 0 -6 -12 -25 -26 -40 l-26 -28 -20 31 c-11
18 -24 32 -30 32 -5 0 2 -14 16 -31 25 -29 31 -47 27 -78 -2 -7 2 -10 8 -7 5
3 19 -6 30 -20 23 -30 28 -49 9 -38 -9 5 -9 3 1 -9 7 -9 17 -14 22 -11 5 3 19
-2 31 -10 12 -9 19 -16 14 -16 -5 0 3 -9 17 -20 14 -11 33 -20 44 -20 15 0 16
2 3 10 -9 6 -10 10 -3 10 7 0 17 -9 23 -20 6 -11 16 -20 23 -20 9 0 8 3 -1 9
-9 5 -11 17 -6 35 8 34 15 37 54 26 24 -7 38 -6 49 3 12 10 13 9 7 -1 -7 -11
-4 -12 13 -3 14 8 21 8 21 1 0 -5 8 -10 18 -10 14 0 15 2 2 10 -20 13 -8 13
25 0 24 -9 26 -8 19 12 -4 13 -12 26 -18 30 -7 5 -4 8 7 8 9 0 17 5 17 10 0 6
7 10 16 10 8 0 13 4 9 9 -7 12 27 23 47 16 16 -6 72 57 61 69 -4 3 -2 6 3 6 5
0 11 11 12 26 1 14 7 34 13 46 8 15 8 19 0 14 -12 -8 -15 14 -13 97 0 30 9 60
23 84 27 43 36 145 14 163 -11 9 -12 6 -3 -24z m-192 -240 c0 -8 -11 -17 -25
-20 -16 -4 -25 -13 -25 -26 0 -24 -4 -24 -38 -6 -15 8 -35 17 -45 20 -10 3
-16 10 -12 16 4 6 15 6 31 0 15 -6 32 -6 42 -1 9 4 22 7 28 4 6 -2 17 3 24 12
15 19 20 19 20 1z m18 -61 c14 -30 14 -29 -26 -9 -38 18 -41 34 -9 34 16 0 28
-9 35 -25z m111 -107 c-8 -26 -17 -37 -26 -33 -8 3 -23 0 -34 -5 -16 -9 -19
-7 -19 14 0 13 -3 33 -6 43 -4 11 4 6 20 -12 14 -16 25 -24 26 -17 0 7 5 10
10 7 6 -3 10 1 10 9 0 8 5 27 12 43 9 24 12 25 16 9 2 -11 -2 -37 -9 -58z
m-138 14 c-7 -2 -18 1 -23 6 -8 8 -4 9 13 5 13 -4 18 -8 10 -11z m34 -73 c-9
-14 -34 2 -28 17 4 11 9 12 19 3 8 -6 11 -15 9 -20z m-300 -19 c3 -5 -1 -10
-9 -10 -8 0 -18 5 -21 10 -3 6 1 10 9 10 8 0 18 -4 21 -10z m56 -37 c13 -16
12 -17 -3 -4 -10 7 -18 15 -18 17 0 8 8 3 21 -13z m-18 -36 c-4 -6 -12 -3 -20
8 -20 28 -16 41 7 20 11 -10 17 -22 13 -28z"/>
<path d="M2785 2990 c-3 -5 -1 -10 4 -10 6 0 11 5 11 10 0 6 -2 10 -4 10 -3 0
-8 -4 -11 -10z"/>
<path d="M1915 2968 c11 -6 29 -18 40 -27 14 -11 12 -7 -4 12 -14 15 -32 27
-40 27 -12 -1 -11 -3 4 -12z"/>
<path d="M2500 2956 c-5 -15 -10 -32 -10 -37 0 -5 -4 -9 -9 -9 -11 0 -25 -39
-18 -47 3 -3 17 21 32 52 14 32 24 60 21 63 -3 2 -10 -7 -16 -22z"/>
<path d="M1455 2910 c-3 -5 -1 -10 4 -10 6 0 11 5 11 10 0 6 -2 10 -4 10 -3 0
-8 -4 -11 -10z"/>
<path d="M3850 2836 c0 -3 9 -10 20 -16 11 -6 20 -8 20 -6 0 3 -9 10 -20 16
-11 6 -20 8 -20 6z"/>
<path d="M3659 2786 c-18 -20 -38 -36 -46 -36 -7 0 -13 -5 -13 -11 0 -6 4 -9
9 -7 16 6 93 80 88 85 -3 2 -20 -12 -38 -31z"/>
<path d="M2936 2734 c-4 -14 -5 -29 -2 -31 3 -3 8 7 12 21 3 15 4 29 1 32 -2
3 -8 -7 -11 -22z"/>
<path d="M3529 2654 c-55 -56 -190 -158 -250 -189 -10 -5 -19 -15 -19 -22 0
-6 -8 -14 -17 -16 -14 -4 -14 -5 -3 -6 9 0 36 17 60 39 38 35 61 47 73 38 3
-3 62 40 100 72 9 8 17 19 17 25 0 6 14 19 30 28 17 10 30 25 30 33 0 8 6 14
13 14 12 0 42 39 35 46 -2 2 -33 -26 -69 -62z"/>
<path d="M2510 2649 c0 -11 5 -17 10 -14 6 3 10 13 10 21 0 8 -4 14 -10 14 -5
0 -10 -9 -10 -21z"/>
<path d="M1399 2623 c-6 -16 -13 -48 -15 -72 -3 -24 -6 -47 -8 -50 -3 -3 2
-14 9 -24 8 -12 15 -14 20 -8 3 6 1 11 -6 11 -7 0 -9 10 -5 33 4 17 7 45 7 60
0 15 4 39 9 52 5 14 7 25 5 25 -3 0 -10 -12 -16 -27z"/>
<path d="M1951 2634 c0 -11 3 -14 6 -6 3 7 2 16 -1 19 -3 4 -6 -2 -5 -13z"/>
<path d="M2520 2614 c0 -5 7 -18 15 -28 8 -11 15 -16 15 -10 0 5 -7 18 -15 28
-8 11 -15 16 -15 10z"/>
<path d="M1962 2560 c0 -14 2 -19 5 -12 2 6 2 18 0 25 -3 6 -5 1 -5 -13z"/>
<path d="M3280 2574 c0 -6 -8 -19 -17 -30 -35 -39 -45 -54 -36 -54 13 0 66 80
59 88 -3 3 -6 1 -6 -4z"/>
<path d="M3132 2508 c-17 -24 -49 -63 -71 -88 -22 -24 -38 -46 -36 -48 2 -3
15 8 27 23 13 15 35 38 51 53 15 14 27 30 27 37 0 6 9 21 21 34 12 12 19 25
16 27 -3 3 -19 -14 -35 -38z"/>
<path d="M2888 2503 c7 -3 16 -2 19 1 4 3 -2 6 -13 5 -11 0 -14 -3 -6 -6z"/>
<path d="M2111 2464 c0 -11 3 -14 6 -6 3 7 2 16 -1 19 -3 4 -6 -2 -5 -13z"/>
<path d="M3195 2469 c-4 -6 -5 -12 -2 -15 2 -3 7 2 10 11 7 17 1 20 -8 4z"/>
<path d="M2485 2415 c17 -13 34 -24 39 -25 6 0 -5 11 -24 25 -44 32 -54 32
-15 0z"/>
<path d="M3143 2393 c-15 -25 -27 -58 -27 -72 -1 -30 -14 -54 -26 -46 -4 3
-13 -2 -20 -10 -10 -12 -9 -15 4 -15 10 0 14 -4 11 -10 -11 -18 10 -11 27 9
19 22 27 46 42 119 3 18 26 39 26 24 0 -7 -5 -12 -12 -12 -6 0 -9 -3 -5 -6 8
-8 47 5 47 16 0 5 -9 12 -21 15 -12 4 -18 12 -15 21 11 29 -4 13 -31 -33z"/>
<path d="M1400 2407 c0 -7 5 -18 12 -25 9 -9 8 -12 -5 -12 -16 0 -16 -3 3 -40
11 -22 22 -40 24 -40 5 0 0 35 -8 48 -4 6 -3 12 2 12 5 0 4 15 -2 35 -11 34
-26 47 -26 22z"/>
<path d="M2121 2337 c0 -48 -6 -98 -13 -110 -6 -12 -11 -23 -10 -24 1 -2 2 -4
1 -5 -1 -2 -2 -21 -4 -43 l-3 -40 13 30 c24 56 40 221 25 259 -5 13 -8 -11 -9
-67z"/>
<path d="M2935 2319 c-16 -10 -25 -19 -19 -19 7 0 22 9 35 20 30 24 23 24 -16
-1z"/>
<path d="M3090 2289 c0 -5 5 -7 10 -4 6 3 10 8 10 11 0 2 -4 4 -10 4 -5 0 -10
-5 -10 -11z"/>
<path d="M1420 2273 c0 -5 5 -15 10 -23 8 -12 10 -11 10 8 0 12 -4 22 -10 22
-5 0 -10 -3 -10 -7z"/>
<path d="M1846 2265 c4 -8 8 -15 10 -15 2 0 4 7 4 15 0 8 -4 15 -10 15 -5 0
-7 -7 -4 -15z"/>
<path d="M2798 2253 c7 -3 16 -2 19 1 4 3 -2 6 -13 5 -11 0 -14 -3 -6 -6z"/>
<path d="M4075 2210 c-3 -5 -13 -6 -22 -3 -11 4 -14 3 -9 -5 11 -18 56 -15 56
3 0 17 -16 20 -25 5z"/>
<path d="M4017 2179 c7 -7 15 -10 18 -7 3 3 -2 9 -12 12 -14 6 -15 5 -6 -5z"/>
<path d="M1470 2177 c0 -4 4 -15 9 -25 5 -9 16 -32 23 -49 7 -18 17 -33 21
-33 5 0 5 6 2 13 -4 6 1 3 9 -7 11 -13 13 -23 6 -30 -15 -15 -12 -26 9 -26 10
0 21 -7 25 -15 3 -9 0 -15 -9 -15 -8 0 -15 5 -15 10 0 6 -4 10 -8 10 -5 0 -9
-7 -9 -15 0 -10 11 -15 32 -15 17 0 34 3 38 6 7 8 -21 66 -37 76 -6 4 -11 11
-11 16 0 12 -31 42 -44 42 -6 0 -11 6 -11 13 -1 12 -30 56 -30 44z"/>
<path d="M1906 2167 c3 -10 9 -15 12 -12 3 3 0 11 -7 18 -10 9 -11 8 -5 -6z"/>
<path d="M2266 2167 c3 -10 9 -15 12 -12 3 3 0 11 -7 18 -10 9 -11 8 -5 -6z"/>
<path d="M3955 2152 c-5 -16 -13 -21 -26 -17 -21 7 -128 -12 -144 -26 -6 -4
-29 -12 -50 -18 -92 -22 -131 -44 -192 -104 -34 -34 -63 -70 -63 -79 0 -10 -4
-18 -8 -18 -4 0 -8 -9 -9 -20 -1 -11 -8 -27 -16 -35 -8 -8 -21 -37 -28 -65 -7
-27 -17 -50 -21 -50 -5 0 -8 -8 -6 -17 3 -17 -1 -19 -39 -22 -14 -1 -15 -3 -5
-10 11 -7 11 -9 -2 -14 -9 -4 -16 -3 -16 2 0 5 -19 8 -42 8 -24 0 -61 3 -83 5
-32 5 -60 -3 -145 -39 -58 -24 -109 -49 -115 -54 -15 -15 -77 -10 -96 7 -16
15 -16 14 -1 -19 10 -19 21 -32 25 -30 5 3 3 -5 -4 -18 -9 -18 -10 -72 -6
-224 4 -110 7 -212 7 -227 0 -20 4 -26 15 -22 10 4 15 0 15 -15 0 -23 -15 -28
-23 -8 -3 6 -3 -3 0 -20 7 -39 -12 -67 -40 -59 -11 3 -16 1 -11 -4 5 -4 23
-11 40 -14 33 -7 49 9 38 38 -3 8 -1 23 5 35 7 13 8 28 1 45 -6 16 -6 27 0 31
6 4 6 14 -1 27 -6 11 -9 31 -6 44 2 14 -1 24 -7 24 -7 0 -7 3 -1 8 15 11 22
92 11 127 -9 27 5 44 37 47 29 3 38 28 9 28 -9 0 -23 10 -31 23 -13 20 -13 21
3 8 22 -19 33 -5 17 21 -11 18 -11 20 4 14 9 -3 19 -6 21 -6 3 0 2 -4 -1 -10
-3 -6 1 -7 9 -4 9 3 16 10 16 14 0 5 13 11 29 15 22 5 28 10 24 26 -3 10 -3
19 1 19 10 0 33 -55 29 -70 -4 -13 -3 -13 6 0 5 8 7 18 5 22 -3 4 1 8 8 8 16
0 -53 59 -69 60 -7 0 -13 -6 -13 -14 0 -9 -9 -14 -20 -13 -11 1 -20 5 -20 10
0 4 -4 5 -10 2 -5 -3 -10 -4 -10 -1 0 10 72 39 100 40 25 1 27 3 15 16 -12 14
-11 17 5 28 17 10 22 8 36 -20 11 -22 18 -27 24 -18 4 7 15 10 23 7 9 -3 18 1
21 9 3 8 1 14 -4 14 -6 0 -10 4 -10 10 0 6 10 5 25 -2 13 -6 22 -15 19 -19 -3
-5 0 -9 6 -9 6 0 8 -4 5 -10 -9 -15 4 -12 20 3 14 15 4 44 -12 34 -6 -4 -19 0
-29 8 -18 14 -18 14 4 15 13 0 20 4 17 10 -3 6 -1 10 4 10 6 0 11 -5 11 -11 0
-5 5 -7 10 -4 6 4 8 10 5 14 -6 10 44 5 53 -5 4 -4 -1 -4 -10 -1 -30 11 -20
-7 12 -21 17 -8 37 -20 44 -28 12 -11 15 -11 20 1 3 9 -1 15 -10 15 -8 0 -13
4 -10 9 4 5 0 11 -6 14 -7 2 -9 8 -5 13 5 5 13 1 18 -9 10 -16 12 -16 29 5 17
20 19 21 20 5 0 -10 5 -15 10 -12 6 4 17 1 25 -5 11 -9 19 -8 37 5 l23 17 -22
-5 c-13 -3 -23 -1 -23 5 0 6 -6 8 -12 5 -8 -3 -13 4 -13 18 0 15 5 21 16 18
10 -3 18 4 22 18 7 25 19 19 24 -11 2 -11 -2 -20 -8 -20 -16 0 -1 -17 21 -23
17 -4 18 -2 9 15 -8 15 -8 22 1 28 7 5 10 15 7 24 -4 9 -2 16 4 16 6 0 7 5 4
10 -3 6 -1 10 6 10 8 0 7 5 -2 17 -10 11 -11 17 -3 20 7 2 10 18 7 40 -4 25
-2 33 6 28 18 -10 105 86 88 98 -9 7 -9 10 1 14 9 4 10 8 2 18 -9 11 -6 12 12
8 19 -4 20 -3 8 6 -12 9 -9 10 13 5 21 -5 27 -3 27 10 0 9 7 16 16 16 10 0 14
6 11 14 -4 10 0 12 14 9 12 -4 38 9 74 36 39 30 62 40 75 36 12 -4 20 -2 20 4
0 6 5 11 11 11 5 0 7 -5 4 -11 -5 -7 8 -9 41 -6 33 2 48 8 50 19 1 11 -4 14
-16 11 -12 -3 -20 2 -23 14 -4 16 -6 15 -12 -5z m-350 -183 c9 -14 -4 -27 -13
-13 -4 6 -14 14 -22 17 -10 4 -8 6 7 6 12 1 25 -4 28 -10z m5 -48 c0 -4 -11
-14 -25 -21 -14 -7 -24 -21 -23 -29 2 -11 -4 -15 -20 -14 -13 2 -25 -4 -28
-12 -8 -19 -24 -19 -24 0 0 8 6 15 13 15 8 0 13 10 13 23 -1 15 4 22 17 21 9
-1 17 4 17 11 0 8 8 15 18 17 20 5 42 -1 42 -11z m-123 -141 l-15 -22 -11 21
c-10 17 -9 21 4 21 8 0 15 5 15 12 0 9 3 9 11 1 8 -8 7 -17 -4 -33z"/>
<path d="M2677 2149 c7 -7 15 -10 18 -7 3 3 -2 9 -12 12 -14 6 -15 5 -6 -5z"/>
<path d="M2718 2143 c7 -3 16 -2 19 1 4 3 -2 6 -13 5 -11 0 -14 -3 -6 -6z"/>
<path d="M2890 2140 c-24 -8 -23 -8 8 -9 17 -1 32 4 32 9 0 11 -5 11 -40 0z"/>
<path d="M1930 2110 c6 -11 13 -20 16 -20 2 0 0 9 -6 20 -6 11 -13 20 -16 20
-2 0 0 -9 6 -20z"/>
<path d="M2808 2123 c12 -2 30 -2 40 0 9 3 -1 5 -23 4 -22 0 -30 -2 -17 -4z"/>
<path d="M1211 2111 c-8 -5 -9 -11 -3 -15 5 -3 12 1 16 9 6 17 6 18 -13 6z"/>
<path d="M1318 2101 c23 -11 49 -18 57 -15 8 4 23 3 32 0 15 -6 15 -8 3 -16
-13 -9 -13 -10 0 -11 31 -4 36 -5 58 -17 12 -7 20 -17 17 -22 -3 -5 0 -12 6
-16 8 -5 9 -3 4 6 -6 10 -3 12 11 7 25 -9 -42 50 -80 70 -16 8 -41 16 -55 18
-14 1 -42 5 -61 9 l-35 6 43 -19z"/>
<path d="M1186 2063 c4 -15 11 -31 16 -34 5 -3 8 -12 6 -20 -2 -8 5 -14 15
-14 10 0 26 -14 35 -30 9 -17 22 -34 27 -38 6 -5 0 -5 -12 -2 -17 5 -23 2 -23
-8 0 -9 -5 -17 -11 -19 -28 -9 28 -60 64 -57 7 0 -1 7 -18 14 -16 8 -25 14
-18 15 6 0 19 3 29 7 12 4 15 3 10 -5 -5 -8 -2 -10 8 -6 9 3 16 1 16 -4 0 -6
19 -12 42 -14 46 -3 57 -17 34 -41 -14 -14 -14 -18 5 -39 11 -12 18 -17 14
-10 -3 7 0 12 8 12 8 0 18 7 21 16 3 8 2 13 -3 10 -5 -3 -15 2 -22 10 -12 15
-10 16 21 10 61 -13 67 -16 78 -40 10 -24 10 -24 -36 -19 -47 5 -55 -4 -12
-12 12 -2 28 -9 36 -16 8 -6 14 -8 14 -3 0 5 5 2 10 -6 5 -8 10 -10 10 -3 0
21 38 2 42 -22 4 -18 1 -22 -11 -18 -13 4 -13 2 2 -10 19 -16 23 -37 7 -37 -5
0 -10 -7 -10 -15 0 -8 -5 -15 -10 -15 -6 0 -8 11 -4 25 4 15 2 25 -5 26 -6 1
-16 2 -22 3 -7 0 -17 10 -23 21 -6 11 -15 23 -21 28 -6 4 -4 11 5 18 12 8 9 9
-12 5 -16 -4 -28 -2 -28 4 0 5 -8 10 -17 10 -17 -1 -17 -1 0 -14 17 -13 23
-36 9 -36 -4 0 -17 7 -30 15 -15 11 -20 12 -17 3 8 -19 73 -59 77 -47 2 5 19
-2 38 -16 27 -20 30 -25 14 -26 -14 0 -15 -2 -4 -6 8 -3 19 -12 23 -19 11 -19
44 -18 51 2 7 19 61 10 85 -14 12 -12 24 -50 17 -52 0 -1 -19 -3 -41 -6 -22
-4 -41 -10 -43 -15 -2 -5 -11 -5 -21 1 -12 6 -32 5 -56 -1 -21 -6 -53 -9 -72
-7 -18 2 -33 0 -33 -4 0 -4 -11 -8 -24 -8 -13 0 -43 -7 -67 -16 -24 -8 -57
-16 -72 -16 -22 -1 -25 -3 -13 -10 9 -5 36 -2 73 11 32 10 65 19 73 19 8 1 35
3 60 7 25 3 87 7 139 9 83 4 97 7 118 29 21 21 23 28 14 46 -7 11 -33 32 -60
45 -47 24 -67 51 -86 116 -10 35 -21 46 -84 88 -31 20 -68 46 -83 58 -30 24
-73 22 -64 -2 3 -8 1 -14 -4 -14 -6 0 -10 5 -10 10 0 21 -2 25 -16 33 -8 4
-20 5 -27 1 -9 -5 -9 -4 1 7 16 17 15 29 -1 29 -8 0 -20 12 -27 26 -8 14 -27
35 -43 46 -19 14 -26 25 -22 38 4 13 -1 22 -15 30 -19 10 -20 9 -14 -17z m290
-240 c-6 -6 -36 9 -36 18 0 5 9 4 20 -3 10 -7 18 -14 16 -15z"/>
<path d="M4082 2075 c-7 -8 -9 -15 -4 -15 5 0 15 7 22 15 16 19 -1 19 -18 0z"/>
<path d="M3770 2038 c0 -12 7 -18 23 -17 15 0 17 2 7 6 -8 3 -18 11 -22 17 -5
7 -8 4 -8 -6z"/>
<path d="M2618 2028 c-10 -8 -10 -9 2 -5 8 2 27 0 43 -4 15 -4 25 -4 22 0 -8
13 -52 19 -67 9z"/>
<path d="M2770 2000 c0 -5 5 -10 10 -10 6 0 10 5 10 10 0 6 -4 10 -10 10 -5 0
-10 -4 -10 -10z"/>
<path d="M1236 1957 c3 -10 9 -15 12 -12 3 3 0 11 -7 18 -10 9 -11 8 -5 -6z"/>
<path d="M1347 1826 c-4 -9 2 -13 19 -13 20 0 22 2 13 13 -6 8 -15 14 -19 14
-4 0 -10 -6 -13 -14z"/>
<path d="M1287 1814 c6 -15 52 -39 60 -30 2 2 -2 13 -9 25 -15 25 -61 30 -51
5z"/>
<path d="M2518 1783 c7 -3 16 -2 19 1 4 3 -2 6 -13 5 -11 0 -14 -3 -6 -6z"/>
<path d="M2463 1643 c9 -2 23 -2 30 0 6 3 -1 5 -18 5 -16 0 -22 -2 -12 -5z"/>
<path d="M2748 1623 c7 -3 16 -2 19 1 4 3 -2 6 -13 5 -11 0 -14 -3 -6 -6z"/>
<path d="M2788 1608 c5 -5 16 -8 23 -6 8 3 3 7 -10 11 -17 4 -21 3 -13 -5z"/>
<path d="M3380 1614 c0 -16 21 -30 48 -32 20 -1 22 2 11 14 -7 8 -19 12 -27 9
-9 -3 -19 0 -24 7 -5 8 -8 9 -8 2z"/>
<path d="M1415 1586 c17 -8 32 -12 34 -10 7 7 -3 12 -34 18 l-30 6 30 -14z"/>
<path d="M3280 1564 c8 -8 21 -19 31 -25 15 -7 17 -6 13 6 -6 15 -35 35 -50
35 -3 0 -1 -7 6 -16z"/>
<path d="M1480 1560 c0 -5 5 -10 11 -10 5 0 7 5 4 10 -3 6 -8 10 -11 10 -2 0
-4 -4 -4 -10z"/>
<path d="M1633 1563 c9 -2 23 -2 30 0 6 3 -1 5 -18 5 -16 0 -22 -2 -12 -5z"/>
<path d="M1785 1560 c-28 -7 -28 -8 -5 -9 23 -1 94 -18 149 -36 16 -5 21 -4
17 4 -4 6 -3 11 3 11 5 0 11 -5 13 -12 3 -9 6 -9 12 0 16 27 -127 59 -189 42z"/>
<path d="M1998 1517 c11 -13 10 -16 -5 -19 -16 -3 -15 -5 5 -17 13 -7 33 -14
44 -16 43 -9 94 -28 111 -43 9 -8 17 -10 17 -5 0 6 -10 17 -22 25 -13 8 -36
23 -53 34 -16 10 -26 13 -22 7 11 -17 -2 -16 -33 3 l-25 15 25 -7 c31 -8 25
-2 -20 21 -29 15 -33 15 -22 2z"/>
<path d="M3190 1526 c0 -2 7 -7 16 -10 8 -3 12 -2 9 4 -6 10 -25 14 -25 6z"/>
<path d="M3147 1499 c7 -7 15 -10 18 -7 3 3 -2 9 -12 12 -14 6 -15 5 -6 -5z"/>
<path d="M3030 1435 c0 -8 4 -15 10 -15 5 0 7 7 4 15 -4 8 -8 15 -10 15 -2 0
-4 -7 -4 -15z"/>
<path d="M2635 1423 c-21 -11 -26 -18 -15 -21 7 -3 16 0 18 7 2 6 10 11 18 11
8 0 14 5 14 10 0 12 1 13 -35 -7z"/>
<path d="M2560 1380 c-13 -8 -12 -10 3 -10 9 0 17 5 17 10 0 12 -1 12 -20 0z"/>
<path d="M2233 1366 c5 -16 47 -20 61 -5 8 9 8 10 -1 5 -7 -4 -13 -4 -13 1 0
4 -11 9 -25 9 -16 1 -24 -3 -22 -10z"/>
<path d="M3116 1371 c-4 -5 3 -7 14 -4 23 6 26 13 6 13 -8 0 -17 -4 -20 -9z"/>
<path d="M2783 1330 c0 -25 2 -35 4 -22 2 12 2 32 0 45 -2 12 -4 2 -4 -23z"/>
<path d="M2485 1350 c-3 -6 1 -7 9 -4 18 7 21 14 7 14 -6 0 -13 -4 -16 -10z"/>
<path d="M2315 1338 c-8 -20 17 -90 34 -96 8 -3 11 0 7 7 -4 6 -3 11 2 11 5 0
9 -13 9 -30 0 -22 -5 -30 -18 -30 -9 0 -19 6 -21 12 -3 7 -7 2 -10 -10 -4 -12
-2 -20 3 -16 5 3 9 0 9 -5 0 -6 7 -11 15 -11 8 0 15 -4 15 -10 0 -6 5 -9 11
-8 6 2 12 -11 13 -30 0 -17 -3 -32 -8 -32 -5 0 -3 -6 3 -14 10 -11 8 -16 -9
-21 -19 -6 -19 -8 -6 -18 13 -10 13 -14 1 -24 -9 -8 -16 -9 -20 -3 -11 18 -26
10 -20 -10 8 -25 -13 -27 -31 -2 -13 16 -14 16 -7 -2 9 -26 36 -52 62 -61 12
-3 19 -10 16 -15 -3 -5 -2 -10 2 -13 5 -2 3 -2 -4 -1 -7 2 -15 -2 -19 -7 -8
-14 27 -46 48 -43 9 1 15 -5 14 -14 -1 -20 70 -61 95 -55 10 3 16 9 13 14 -9
15 23 10 36 -6 7 -8 9 -15 4 -15 -4 0 1 -7 12 -15 18 -13 18 -14 -5 -8 -17 4
-22 3 -17 -5 4 -7 14 -12 22 -12 8 0 14 -3 14 -7 1 -17 47 -41 61 -33 11 7 6
12 -18 21 -18 6 -33 15 -33 20 0 11 17 12 22 2 2 -5 29 -21 60 -36 48 -24 68
-43 68 -63 0 -2 -8 -5 -17 -5 -10 -1 -4 -5 12 -9 29 -7 29 -8 5 -10 -24 -2
-23 -3 5 -9 33 -8 60 1 88 30 17 18 17 19 -3 39 -12 12 -42 28 -68 36 -58 17
-65 17 -56 2 4 -7 -3 -3 -15 10 -12 12 -26 22 -32 22 -6 0 -26 12 -45 26 -19
15 -34 23 -34 18 0 -13 -80 98 -116 162 -34 61 -46 132 -31 189 3 11 6 44 6
72 l1 53 38 -17 c48 -22 70 -41 93 -78 13 -20 19 -24 19 -13 0 28 -56 84 -99
98 -22 7 -49 21 -59 30 -10 9 -31 20 -47 24 -17 4 -38 15 -47 23 -15 14 -18
14 -23 1z m90 -78 c3 -5 1 -10 -4 -10 -6 0 -11 5 -11 10 0 6 2 10 4 10 3 0 8
-4 11 -10z m-35 -294 c0 -22 -16 -28 -29 -12 -9 11 -9 15 1 19 22 9 28 8 28
-7z m35 -6 c-3 -5 -12 -10 -18 -10 -7 0 -6 4 3 10 19 12 23 12 15 0z m379
-309 c4 -5 -3 -7 -14 -4 -23 6 -26 13 -6 13 8 0 17 -4 20 -9z"/>
<path d="M2263 1204 c0 -18 29 -15 33 4 1 7 0 8 -3 2 -3 -7 -9 -8 -17 -1 -9 8
-13 6 -13 -5z"/>
<path d="M2745 1187 c-12 -14 -13 -166 -2 -184 15 -23 -9 -14 -34 13 -13 14
-34 30 -46 35 -12 4 -29 24 -39 44 -21 45 -33 53 -26 17 3 -16 33 -53 76 -94
60 -58 75 -67 104 -66 31 1 33 3 16 15 -10 7 -21 13 -25 13 -16 0 -30 170 -16
181 5 4 7 13 5 22 -2 11 -6 12 -13 4z"/>
<path d="M2310 920 c0 -5 5 -10 11 -10 5 0 7 5 4 10 -3 6 -8 10 -11 10 -2 0
-4 -4 -4 -10z"/>
<path d="M2214 828 c-5 -7 -2 -9 8 -5 9 3 21 0 27 -6 8 -8 11 -8 11 0 0 6 -7
14 -16 17 -21 8 -22 8 -30 -6z"/>
</g>
</svg>
