<?xml version="1.0" standalone="no"?>
<!DOCTYPE svg PUBLIC "-//W3C//DTD SVG 20010904//EN"
 "http://www.w3.org/TR/2001/REC-SVG-20010904/DTD/svg10.dtd">
<svg version="1.0" xmlns="http://www.w3.org/2000/svg"
 width="500.000000pt" height="500.000000pt" viewBox="0 0 500.000000 500.000000"
 preserveAspectRatio="xMidYMid meet">

<g transform="translate(0.000000,500.000000) scale(0.100000,-0.100000)"
fill="#000000" stroke="none">
<path d="M2270 3833 c-222 -39 -445 -146 -617 -298 -394 -346 -540 -877 -378
-1372 36 -109 110 -263 127 -263 5 0 8 3 6 8 -2 4 -24 50 -50 102 -83 170
-118 313 -125 516 -14 358 112 679 367 935 190 190 438 319 695 360 111 17
321 15 431 -4 382 -68 726 -325 901 -672 183 -361 189 -767 18 -1124 -60 -123
-59 -121 -46 -121 14 0 98 180 129 280 46 144 56 211 56 375 0 290 -77 533
-244 767 -192 269 -522 472 -845 518 -101 14 -326 11 -425 -7z"/>
<path d="M2741 3428 c-167 -17 -334 -94 -456 -209 -153 -146 -195 -320 -100
-419 l34 -35 -67 -92 -67 -92 -80 -27 c-278 -92 -515 -279 -515 -407 0 -78 76
-86 205 -23 110 54 244 179 428 398 47 55 51 57 160 92 61 19 112 34 114 33 1
-2 -14 -23 -33 -47 -50 -63 -74 -113 -81 -170 -5 -45 -3 -51 26 -81 32 -31 33
-32 104 -26 130 11 272 103 341 220 29 52 59 156 53 190 -4 24 -3 26 -31 -63
-57 -178 -275 -357 -408 -335 -204 35 84 392 387 480 118 35 314 16 359 -34
17 -19 16 -20 -41 -56 -105 -67 -218 -171 -400 -367 -330 -357 -380 -398 -489
-398 -47 0 -67 5 -88 21 -30 24 -35 49 -7 42 22 -6 52 22 45 42 -7 18 -55 20
-72 3 -21 -21 -14 -67 14 -93 32 -30 77 -39 154 -32 149 13 338 158 525 402
151 197 278 328 370 385 37 22 50 2 49 -73 0 -97 -62 -201 -152 -258 -40 -25
-51 -27 -106 -22 -44 4 -72 1 -98 -10 -78 -33 -22 -66 82 -49 76 13 83 8 74
-58 -23 -165 -153 -300 -289 -300 -99 0 -110 54 -28 141 53 57 145 106 214
115 27 4 49 11 49 16 0 9 -52 3 -110 -14 -120 -35 -242 -157 -226 -224 17 -64
151 -72 273 -15 77 37 155 111 174 168 16 49 7 147 -16 173 -10 11 -16 22 -14
23 2 2 26 16 54 32 68 39 140 109 165 159 30 62 27 142 -6 191 -30 44 -27 47
56 71 79 22 79 22 38 23 -21 1 -60 -7 -87 -18 l-50 -19 -48 24 c-165 81 -422
46 -623 -84 -41 -27 -102 -54 -165 -73 -156 -48 -143 -47 -114 -8 84 113 76
106 132 112 179 22 382 233 393 411 l4 61 -15 -59 c-24 -93 -73 -174 -155
-257 -80 -80 -179 -139 -233 -139 l-29 0 27 36 c16 21 69 94 118 163 217 304
361 429 508 439 95 7 79 22 -25 22 -52 0 -100 2 -108 4 -7 2 -51 -1 -97 -6z
m91 -43 c-169 -79 -339 -239 -515 -482 -44 -62 -83 -113 -87 -113 -4 0 -17 11
-30 25 -17 18 -25 40 -28 80 -4 48 0 65 27 120 96 194 433 403 651 404 l55 0
-73 -34z m-819 -896 c-196 -251 -370 -396 -465 -387 -28 3 -33 7 -36 31 -8 70
144 208 370 336 46 26 161 79 176 81 2 0 -18 -28 -45 -61z m916 -128 c11 -7 3
-12 -28 -21 -48 -13 -72 -11 -78 7 -7 19 81 30 106 14z"/>
<path d="M1447 1803 c-54 -42 -57 -46 -44 -66 8 -12 26 -30 40 -41 26 -19 27
-19 47 -1 11 10 18 25 16 32 -3 8 2 13 14 13 37 0 38 43 3 87 l-18 21 -58 -45z
m93 -23 c0 -4 -7 -13 -16 -20 -13 -11 -19 -10 -36 8 -21 21 -21 22 -3 42 l20
22 17 -22 c10 -12 18 -26 18 -30z m-52 -54 c-5 -32 -42 -32 -62 -1 -16 25 -16
27 6 45 23 19 23 19 41 -2 10 -12 17 -31 15 -42z"/>
<path d="M3460 1804 c0 -5 19 -40 41 -79 26 -45 38 -60 34 -41 -4 20 -1 34 11
47 10 11 15 22 11 25 -3 3 -10 -4 -17 -15 -15 -29 -24 -26 -43 14 -9 19 -15
35 -14 35 2 0 24 -7 50 -16 25 -8 56 -14 69 -12 17 3 8 8 -32 20 -87 26 -110
31 -110 22z"/>
<path d="M3347 1682 c-39 -40 -52 -69 -17 -37 20 18 22 18 70 -30 61 -60 65
-51 9 16 -40 48 -41 50 -24 69 33 36 0 21 -38 -18z"/>
<path d="M1561 1656 c-29 -29 -49 -56 -43 -60 5 -3 17 3 27 14 26 29 45 8 46
-49 l1 -46 10 36 c7 29 15 38 39 43 24 4 29 11 29 34 0 18 -10 38 -28 55 l-28
27 -53 -54z m83 12 c21 -30 20 -45 -3 -58 -15 -7 -25 -5 -42 9 -22 18 -22 19
-6 45 21 32 31 33 51 4z"/>
<path d="M3223 1572 l-32 -27 30 -40 c17 -22 37 -48 44 -59 13 -18 15 -17 54
10 22 16 41 33 41 37 0 4 -16 -4 -36 -20 l-36 -27 -20 24 c-19 23 -19 23 9 47
l28 24 -32 -17 c-32 -18 -33 -18 -47 1 -14 18 -13 22 17 47 18 15 28 27 22 27
-5 0 -24 -12 -42 -27z"/>
<path d="M1721 1525 c-63 -40 -74 -50 -44 -41 34 11 73 -20 73 -57 0 -48 13
-22 31 59 12 52 13 74 5 74 -6 0 -35 -16 -65 -35z m49 -7 c0 -39 -14 -52 -39
-37 -27 18 -27 21 7 41 34 22 32 22 32 -4z"/>
<path d="M3117 1504 c-3 -3 11 -33 31 -67 44 -76 41 -72 48 -64 4 3 -6 28 -21
54 -40 69 -51 84 -58 77z"/>
<path d="M1887 1468 c-25 -41 -57 -99 -57 -104 0 -2 4 -4 9 -4 10 0 75 120 68
127 -3 2 -12 -6 -20 -19z"/>
<path d="M1970 1373 c-30 -31 -47 -51 -38 -44 27 20 88 -5 88 -36 0 -13 5 -23
10 -23 6 0 10 33 10 80 0 44 -4 80 -8 80 -4 0 -32 -26 -62 -57z m47 -39 c-2
-3 -17 0 -32 6 l-28 11 29 30 29 31 3 -37 c2 -20 1 -39 -1 -41z"/>
<path d="M2970 1425 c0 -3 13 -35 29 -70 l30 -65 45 22 c25 12 44 24 42 26 -2
2 -18 -4 -35 -13 -18 -9 -36 -13 -40 -10 -5 3 -19 30 -32 60 -12 30 -26 55
-31 55 -4 0 -8 -2 -8 -5z"/>
<path d="M2894 1383 c2 -10 10 -38 17 -62 12 -41 12 -45 -9 -61 -43 -35 -60
-18 -99 100 -4 11 -7 11 -10 3 -8 -21 27 -113 48 -123 26 -15 69 -1 81 25 7
17 6 38 -6 79 -9 31 -19 56 -22 56 -3 0 -3 -8 0 -17z"/>
<path d="M2145 1368 c-15 -45 -32 -127 -25 -123 5 3 11 22 15 43 11 67 20 68
45 5 37 -93 45 -95 64 -19 9 36 16 71 15 78 0 7 -9 -16 -18 -52 l-17 -65 -30
72 c-28 71 -40 86 -49 61z"/>
<path d="M2700 1336 c0 -10 5 -48 12 -84 11 -59 10 -65 -7 -78 -16 -12 -17
-14 -2 -14 29 0 37 32 25 106 -10 66 -28 110 -28 70z"/>
<path d="M2445 1326 c-12 -8 -16 -19 -11 -31 4 -11 0 -25 -10 -36 -38 -42 15
-97 66 -69 16 9 25 9 36 -1 9 -7 14 -8 14 -1 0 6 -5 14 -10 17 -6 4 -8 16 -5
28 5 18 4 19 -5 7 -9 -13 -15 -10 -40 20 -17 19 -30 40 -30 47 0 21 30 28 54
13 19 -12 20 -12 7 3 -16 21 -41 22 -66 3z m37 -90 c15 -21 15 -26 3 -36 -21
-17 -55 -3 -55 24 0 42 26 48 52 12z"/>
</g>
</svg>
