<?xml version="1.0" standalone="no"?>
<!DOCTYPE svg PUBLIC "-//W3C//DTD SVG 20010904//EN"
 "http://www.w3.org/TR/2001/REC-SVG-20010904/DTD/svg10.dtd">
<svg version="1.0" xmlns="http://www.w3.org/2000/svg"
 width="1584.000000pt" height="396.000000pt" viewBox="0 0 1584.000000 396.000000"
 preserveAspectRatio="xMidYMid meet">

<g transform="translate(0.000000,396.000000) scale(0.100000,-0.100000)"
fill="#000000" stroke="none">
<path d="M11071 2704 c0 -11 3 -14 6 -6 3 7 2 16 -1 19 -3 4 -6 -2 -5 -13z"/>
<path d="M1220 2579 c-143 -28 -245 -82 -345 -183 -48 -49 -96 -109 -120 -153
l-40 -71 -65 -7 c-70 -7 -183 -29 -215 -41 -11 -5 11 21 48 55 116 109 243
329 210 362 -18 18 -109 -37 -180 -108 -66 -66 -122 -166 -144 -258 -17 -72
-24 -82 -66 -95 -51 -16 -270 -129 -284 -146 -6 -7 -8 -18 -4 -24 4 -7 24 2
53 24 109 79 411 198 450 177 11 -6 38 -39 61 -75 60 -92 165 -168 304 -221
70 -26 180 -35 192 -15 11 18 -73 117 -148 173 -111 84 -178 118 -287 148
l-45 13 50 7 c68 10 338 10 398 0 68 -11 98 -45 174 -194 71 -141 134 -224
210 -280 59 -43 174 -109 180 -103 2 2 -15 30 -39 63 -24 32 -67 113 -96 180
-58 133 -97 184 -185 250 -33 23 -57 43 -55 43 3 0 37 -11 77 -25 101 -34 269
-123 451 -240 85 -54 201 -120 256 -146 119 -57 137 -75 205 -212 56 -110 112
-177 204 -242 73 -51 175 -108 182 -101 7 6 -178 291 -223 344 -20 24 -73 68
-118 98 l-80 54 54 -8 c59 -8 158 -8 285 -2 77 4 84 2 205 -47 69 -28 148 -58
177 -66 77 -23 88 -32 102 -79 19 -64 85 -186 130 -241 71 -85 190 -169 260
-183 28 -6 31 -4 31 20 0 85 -175 313 -309 401 -23 16 -40 30 -38 32 2 1 28
-2 58 -7 30 -6 106 -13 169 -17 l115 -6 32 -52 c48 -77 155 -188 231 -239 127
-84 277 -126 446 -126 l81 1 -30 25 c-55 46 -109 77 -270 154 -88 41 -195 95
-238 118 -43 23 -82 42 -85 42 -4 -1 6 -8 21 -16 16 -9 26 -18 23 -22 -4 -3
-12 0 -18 6 -16 16 -25 15 -25 -3 0 -9 6 -14 12 -11 6 2 12 -2 12 -9 0 -7 -5
-12 -11 -11 -43 4 28 -64 184 -177 14 -10 -3 -4 -36 13 -34 18 -86 53 -117 78
-58 50 -114 112 -101 112 4 0 -8 17 -27 37 -18 21 -24 29 -11 19 12 -11 22
-16 22 -11 0 4 6 2 14 -4 10 -9 17 -7 27 5 8 10 12 20 9 23 -3 3 9 6 25 7 73
2 352 -116 382 -162 20 -31 36 -31 22 -1 -19 42 -199 125 -391 181 -46 13 -76
26 -68 29 8 3 60 10 114 16 83 9 254 45 264 56 1 1 -3 14 -9 28 l-12 26 -29
-24 c-16 -13 -46 -29 -67 -35 -85 -23 -254 -40 -391 -39 l-145 0 65 23 c123
43 219 104 328 210 92 89 111 119 104 170 l-4 38 -52 -6 c-59 -8 -197 -70
-270 -124 -28 -20 -76 -60 -107 -89 l-56 -53 -89 30 c-126 43 -252 64 -347 56
-42 -3 -139 -22 -215 -42 -134 -35 -140 -36 -277 -32 -116 5 -155 10 -225 32
-83 27 -240 106 -290 147 l-25 20 155 -7 c286 -14 293 -13 395 34 50 22 102
44 118 47 15 4 27 10 27 14 0 12 -106 41 -172 47 -86 8 -157 -7 -279 -59 -118
-51 -204 -72 -252 -62 -17 4 -68 30 -112 58 -44 28 -135 79 -203 113 -82 42
-117 64 -105 67 35 10 90 17 220 27 163 13 238 35 337 101 43 28 94 57 114 66
55 23 22 34 -105 34 -166 1 -233 -19 -394 -116 -169 -102 -206 -113 -297 -85
-83 26 -214 47 -341 55 l-104 7 85 33 c163 63 290 138 359 212 34 36 119 156
119 167 0 10 -52 5 -150 -15z m94 -15 c-10 -8 -12 -12 -4 -8 12 7 13 5 3 -8
-7 -8 -11 -17 -8 -20 3 -3 -7 -18 -22 -34 -15 -16 -28 -32 -28 -36 0 -4 -17
-19 -37 -33 -21 -14 -38 -30 -38 -35 0 -10 -95 -77 -147 -103 -50 -26 -133
-57 -130 -49 2 8 -6 12 -24 12 -8 0 -7 -6 2 -17 11 -15 11 -16 -1 -5 -8 6 -18
12 -23 12 -4 0 -5 -6 -1 -12 4 -7 3 -9 -1 -5 -15 13 -14 36 0 31 12 -5 13 0 6
35 -1 2 -7 -2 -15 -8 -10 -8 -16 -9 -21 -1 -3 6 -11 7 -17 4 -18 -12 8 29 52
79 38 43 158 137 174 137 4 0 -19 -22 -51 -49 -86 -72 -166 -158 -149 -158 8
0 13 4 11 8 -3 4 3 6 12 5 12 -2 18 -11 17 -25 -1 -20 0 -21 20 -7 11 8 20 19
18 25 -1 7 45 42 102 79 155 100 145 93 122 85 -14 -5 -17 -3 -11 7 5 9 4 11
-4 6 -6 -4 -9 -11 -6 -16 3 -5 -3 -8 -12 -7 -25 1 -74 -33 -66 -46 4 -6 0 -8
-9 -4 -9 3 -26 -1 -37 -10 -12 -8 -24 -13 -27 -11 -6 7 156 133 202 157 22 12
60 23 83 25 23 2 45 6 48 10 4 3 13 6 22 6 11 0 11 -3 -5 -16z m-169 -26 c-16
-9 -174 -129 -209 -159 -14 -12 36 -5 64 9 25 12 25 12 3 -3 -12 -9 -43 -32
-70 -51 -26 -19 -42 -34 -35 -34 7 0 10 -4 7 -10 -3 -5 -11 -10 -17 -10 -6 0
-8 3 -5 7 10 9 -13 34 -27 27 -6 -3 28 32 75 78 77 74 197 159 224 158 5 0 1
-6 -10 -12z m-490 -79 c-7 -60 -136 -240 -207 -290 -21 -15 -28 -17 -19 -6 7
9 10 17 6 17 -4 0 -2 7 5 15 7 9 10 18 7 21 -3 4 5 22 18 42 25 37 23 70 -2
36 -8 -10 -19 -18 -25 -16 -6 2 -8 -4 -4 -13 3 -9 2 -13 -3 -10 -5 3 -13 -4
-16 -16 -4 -11 -9 -18 -12 -16 -2 3 9 32 25 64 33 65 110 168 120 159 3 -3 14
1 24 11 10 9 18 13 18 8 0 -4 8 -1 17 6 17 13 17 13 0 -13 -9 -15 -13 -29 -8
-33 5 -3 19 11 31 30 12 19 23 35 25 35 2 0 2 -14 0 -31z m445 -14 c0 -2 -10
-9 -22 -15 -22 -11 -22 -10 -4 4 21 17 26 19 26 11z m865 -146 l40 -12 -50
-23 c-27 -13 -43 -24 -35 -25 20 -1 -60 -38 -85 -39 -19 -1 -19 -2 -1 -9 14
-5 4 -12 -43 -26 -67 -20 -148 -25 -196 -12 -22 7 -26 6 -15 -2 17 -12 4 -13
-25 -2 -16 7 -10 12 37 26 32 10 54 23 51 28 -4 6 1 8 11 4 10 -4 29 -4 43 -1
l26 7 -24 13 c-32 18 -49 17 -25 -1 11 -8 15 -15 10 -15 -6 0 -15 5 -21 11 -7
7 -26 3 -64 -16 -30 -14 -45 -18 -34 -9 37 30 168 88 201 88 18 0 31 4 28 8
-3 4 1 6 8 3 7 -3 27 -1 43 4 42 13 74 13 120 0z m-1165 -43 c0 -2 -8 -10 -17
-17 -16 -13 -17 -12 -4 4 13 16 21 21 21 13z m-119 -166 c60 -18 211 -99 223
-118 3 -5 -27 8 -67 29 -39 21 -76 38 -82 38 -5 0 27 -19 72 -42 86 -46 130
-76 176 -122 25 -26 26 -29 11 -46 -25 -27 -100 -17 -188 25 -85 41 -186 114
-212 153 -13 20 -13 25 -2 16 8 -7 19 -9 23 -5 5 4 5 2 1 -5 -4 -7 16 -29 51
-56 68 -51 101 -71 58 -33 -40 34 -26 33 33 -3 26 -17 77 -44 114 -61 61 -29
69 -30 94 -17 22 12 24 15 10 20 -10 4 -15 3 -11 -3 10 -16 -6 -12 -52 15 -50
30 -58 27 -10 -4 49 -31 15 -25 -56 10 -99 50 -256 160 -194 136 24 -9 21 0
-4 14 -15 8 -19 8 -15 0 11 -18 -10 -13 -25 6 -12 14 -12 16 1 9 8 -4 4 2 -10
13 -35 29 -19 26 51 -10 34 -16 58 -25 54 -20 -3 6 0 11 7 11 9 0 9 3 -2 10
-8 5 -23 7 -34 4 -11 -4 -16 -2 -12 4 3 5 -18 19 -47 30 -67 27 -38 28 44 2z
m637 -137 c26 -30 68 -85 93 -124 25 -38 49 -66 53 -62 4 4 4 -1 0 -11 -4 -12
-4 -17 2 -13 9 5 13 -9 15 -55 0 -10 5 -17 11 -15 6 1 12 -6 13 -16 3 -18 3
-18 -16 -1 -10 9 -19 13 -19 9 0 -5 -16 6 -35 25 -19 19 -35 30 -35 25 0 -14
-41 28 -57 59 -8 15 -10 25 -4 22 6 -4 11 -3 11 2 0 17 -13 22 -28 9 -13 -11
-14 -9 -1 10 16 26 13 29 78 -62 28 -38 51 -67 51 -63 0 7 -136 198 -148 208
-3 3 2 -8 12 -23 10 -16 15 -31 13 -34 -8 -8 -35 51 -30 65 3 7 -1 11 -9 10
-8 -2 -12 4 -9 17 3 20 3 20 -20 0 -24 -20 -24 -20 -8 0 9 11 14 26 12 33 -3
6 -2 12 1 12 8 0 148 -190 179 -242 15 -27 30 -48 33 -48 15 0 -123 199 -187
270 -22 25 -38 40 -35 34 3 -7 -2 -18 -11 -25 -15 -12 -16 -12 -8 1 15 24 13
33 -19 69 l-31 35 43 -33 c24 -19 64 -58 90 -88z m48 13 c19 -22 32 -42 29
-44 -3 -3 2 -16 10 -29 8 -13 22 -34 31 -48 9 -14 14 -25 11 -25 -2 0 -16 17
-29 38 -14 20 -49 63 -78 95 -28 31 -48 57 -44 57 5 0 -7 14 -26 31 l-35 31
49 -34 c27 -18 64 -51 82 -72z m-676 14 c19 -16 31 -29 25 -29 -5 0 -26 13
-45 29 -19 17 -30 30 -25 30 6 0 26 -14 45 -30z m1680 -36 c41 -4 67 -9 57
-12 -9 -2 -15 -7 -12 -12 9 -15 -74 -40 -138 -42 l-62 -1 55 -6 c53 -6 53 -6
21 -13 -45 -11 -201 -9 -226 2 -15 6 -8 9 30 10 28 2 64 6 80 10 19 5 -1 7
-52 5 -46 -2 -83 0 -83 5 0 5 7 6 17 3 10 -4 14 -2 10 4 -8 13 17 25 36 17 7
-2 24 0 38 6 24 10 24 10 -3 5 -44 -9 -32 3 20 19 26 8 67 13 92 11 25 -2 79
-8 120 -11z m-1073 -99 c21 -42 1 -19 -26 30 -13 22 -15 31 -6 20 9 -11 23
-33 32 -50z m2440 2 c14 -14 10 -21 -42 -77 -60 -62 -150 -127 -243 -174 -66
-34 -77 -29 -20 9 24 15 100 71 170 124 125 94 127 96 103 109 -22 11 -31 9
-77 -14 -69 -35 -159 -96 -226 -152 -67 -56 -80 -49 -15 8 64 56 123 97 208
142 80 43 80 50 -1 12 -104 -49 -292 -203 -278 -226 4 -6 3 -8 -4 -4 -6 3 -13
2 -16 -3 -4 -5 -1 -13 5 -17 8 -4 9 -3 5 4 -5 8 -1 10 10 5 14 -5 13 -8 -7
-25 -50 -41 12 0 199 130 107 73 195 132 198 130 5 -5 -180 -151 -261 -205
-86 -57 -187 -115 -192 -109 -3 2 5 9 16 16 12 6 19 15 16 20 -3 5 -1 11 5 15
6 4 8 11 4 16 -3 5 -11 6 -17 2 -16 -10 20 45 52 80 43 47 158 128 237 167 80
41 142 47 171 17z m-52 -15 c-6 -5 -64 -46 -130 -92 -66 -46 -141 -98 -168
-117 -57 -40 -69 -42 -36 -7 40 43 160 131 244 179 73 41 114 58 90 37z m-780
-141 c-68 -6 -66 -6 55 -14 122 -7 217 -22 175 -27 -11 -2 -2 -6 20 -10 33 -6
25 -8 -45 -10 -70 -2 -78 -4 -45 -10 l40 -7 -45 -2 c-106 -3 -184 -14 -165
-23 27 -11 -109 0 -159 13 -29 8 -36 13 -25 20 8 5 26 9 41 9 15 0 30 5 33 10
4 6 70 11 158 12 84 1 134 3 112 5 -22 1 -98 8 -169 13 -71 6 -132 7 -135 3
-3 -5 -22 -6 -41 -3 -34 6 -34 6 20 17 30 6 98 10 150 10 93 -1 93 -1 25 -6z
m699 -22 c-34 -38 -179 -128 -248 -154 -77 -29 -106 -32 -58 -7 18 10 29 21
25 25 -4 5 1 5 11 1 15 -6 17 -4 11 6 -5 9 -4 11 3 6 7 -4 20 -2 29 4 17 11
17 11 0 6 -11 -4 -16 -2 -12 5 4 6 14 8 22 5 17 -7 134 52 191 95 45 34 51 36
26 8z m-817 -5 c-3 -3 -12 -4 -19 -1 -8 3 -5 6 6 6 11 1 17 -2 13 -5z m454
-106 c-16 -29 -40 -61 -53 -70 -22 -17 -27 -17 -128 6 -58 14 -136 36 -175 50
l-70 25 66 0 c37 1 100 8 140 16 94 18 121 22 191 24 l57 1 -28 -52z m-871
-89 c16 -20 27 -38 25 -41 -3 -2 12 -24 33 -48 20 -24 31 -41 25 -36 -8 4 -13
2 -13 -5 0 -7 -11 -2 -25 11 -14 13 -23 30 -20 38 3 8 0 10 -7 6 -7 -5 -8 -3
-3 6 5 9 4 11 -3 6 -8 -4 -10 -2 -6 7 3 8 1 18 -5 22 -6 3 -11 1 -11 -5 0 -6
-5 -8 -11 -5 -6 4 -8 13 -5 20 3 9 -2 12 -15 10 -11 -2 -17 0 -15 4 3 4 -1 8
-9 8 -14 0 31 -71 78 -124 11 -13 18 -26 15 -29 -6 -5 -48 44 -103 121 l-21
28 -1 -24 c-2 -18 0 -20 7 -9 9 13 10 13 11 0 1 -8 1 -22 0 -30 -2 -13 -1 -13
10 0 9 13 10 12 5 -3 -3 -11 -2 -16 4 -12 6 4 10 3 9 -2 -1 -4 -1 -15 0 -23 1
-13 2 -13 11 0 9 13 10 13 11 0 1 -8 1 -19 0 -23 -1 -5 4 -5 10 -1 8 5 9 3 4
-6 -6 -9 -4 -11 5 -5 9 6 11 4 6 -4 -10 -16 -38 9 -82 74 -22 32 -30 53 -24
59 14 14 12 26 -2 24 -8 -2 -12 5 -10 16 2 10 -1 15 -7 12 -5 -4 -12 -2 -15 3
-13 20 27 3 44 -19 12 -16 19 -19 25 -11 5 9 12 8 25 -4 10 -9 21 -12 24 -7 3
5 -16 25 -43 45 -75 58 -93 85 -23 37 35 -24 76 -60 92 -81z m-11 -55 c4 3 8
-1 8 -8 0 -15 126 -167 132 -160 3 2 -10 19 -27 37 -36 37 -39 44 -17 44 8 0
13 -2 10 -5 -2 -2 12 -25 32 -51 56 -69 62 -79 41 -62 -10 7 -18 10 -18 5 0
-5 -24 16 -54 45 -29 29 -56 49 -60 43 -6 -11 27 -45 37 -37 4 3 5 2 2 -2 -3
-3 3 -16 12 -27 l18 -21 -25 20 c-48 38 -80 69 -80 78 0 5 6 4 14 -2 10 -8 16
-9 21 -1 3 5 -14 37 -39 69 -25 33 -46 63 -46 67 0 5 7 -2 16 -14 8 -12 19
-20 23 -18z m861 -103 c82 -82 185 -218 149 -195 -7 4 -10 2 -7 -7 3 -8 10
-13 16 -12 7 2 9 -4 5 -14 -4 -11 -3 -14 5 -9 8 5 10 2 6 -9 -7 -17 -8 -17
-43 29 -12 17 -29 31 -37 32 -20 3 -18 -5 8 -35 12 -14 -8 3 -45 39 -37 35
-67 69 -67 74 0 6 18 -7 40 -29 48 -47 81 -58 51 -17 -25 35 -101 108 -101 98
0 -5 -7 -3 -15 4 -23 19 -18 -4 5 -25 15 -13 20 -14 20 -5 0 8 16 -1 35 -20
19 -19 35 -38 35 -44 0 -5 -16 5 -35 24 -19 19 -35 30 -35 26 0 -5 -7 -3 -15
4 -12 10 -15 10 -15 -1 0 -10 -2 -11 -12 0 -7 6 -13 25 -13 41 0 36 -17 41
-21 6 -2 -17 13 -41 48 -80 27 -31 53 -54 57 -51 5 2 21 -10 37 -27 16 -18 21
-26 10 -18 -10 8 -25 15 -35 16 -9 2 -41 29 -71 62 -59 63 -121 165 -99 160 7
-2 14 4 14 12 0 8 6 14 13 13 7 -2 12 1 12 5 0 16 -13 22 -26 11 -8 -7 -14 -7
-19 1 -4 6 -3 10 2 9 18 -3 24 2 16 14 -4 6 -8 18 -9 24 -4 25 41 -10 136
-106z m478 -26 c24 -13 116 -58 205 -100 160 -75 250 -125 247 -140 -1 -4 4
-12 12 -17 8 -6 3 -7 -17 -2 -16 4 -49 7 -71 6 -23 -1 -61 5 -85 13 -42 15
-312 186 -304 193 2 2 36 -14 77 -36 195 -105 268 -142 268 -138 0 3 -18 15
-41 26 -79 41 -29 33 62 -9 50 -24 92 -41 95 -39 2 2 -60 33 -137 68 -78 35
-184 88 -236 116 -53 30 -102 50 -111 47 -13 -4 -14 -3 -4 5 11 7 11 10 -1 15
-12 4 -15 0 -12 -14 3 -16 0 -19 -13 -14 -30 11 -1 -10 158 -114 145 -95 181
-127 89 -81 -22 12 -45 18 -51 14 -7 -4 -8 -3 -4 4 4 6 -4 16 -16 23 -23 12
-134 95 -193 143 -16 13 -23 24 -15 23 8 -1 16 2 17 7 1 9 23 26 33 26 3 0 24
-11 48 -25z m-1267 -2 c13 -16 12 -17 -3 -4 -10 7 -18 15 -18 17 0 8 8 3 21
-13z m1514 -162 c-2 -2 -61 27 -130 63 -70 36 -131 63 -136 60 -5 -3 -14 -2
-20 2 -8 5 -8 9 1 14 12 7 293 -130 285 -139z m-705 25 c0 -5 -13 3 -30 19
-16 16 -30 33 -30 39 0 5 14 -3 30 -19 17 -16 30 -33 30 -39z"/>
<path d="M1235 2550 c-3 -6 1 -7 9 -4 18 7 21 14 7 14 -6 0 -13 -4 -16 -10z"/>
<path d="M1258 2534 c-38 -20 -36 -28 2 -9 17 9 30 18 30 20 0 7 -1 6 -32 -11z"/>
<path d="M1189 2519 l-24 -20 28 17 c15 9 27 18 27 20 0 8 -8 4 -31 -17z"/>
<path d="M1269 2509 l-24 -20 28 17 c15 9 27 18 27 20 0 8 -8 4 -31 -17z"/>
<path d="M1188 2494 c-38 -20 -36 -28 2 -9 17 9 30 18 30 20 0 7 -1 6 -32 -11z"/>
<path d="M1187 2461 c-60 -36 -74 -50 -22 -23 39 20 85 52 75 51 -3 0 -26 -13
-53 -28z"/>
<path d="M1133 2401 c-56 -31 -106 -60 -110 -65 -9 -9 180 89 212 111 45 30
-7 7 -102 -46z"/>
<path d="M1029 2369 c-46 -27 -88 -55 -94 -61 -5 -6 6 -2 25 11 19 12 63 38
98 57 54 31 71 44 59 44 -2 0 -42 -23 -88 -51z"/>
<path d="M1144 2374 c-18 -14 -18 -15 4 -4 12 6 22 13 22 15 0 8 -5 6 -26 -11z"/>
<path d="M1050 2325 c-74 -39 -96 -44 -60 -14 l25 21 -35 -21 c-19 -11 -34
-26 -32 -32 2 -6 -4 -9 -12 -6 -16 6 -28 -2 -20 -14 5 -8 204 86 204 96 0 7 2
8 -70 -30z"/>
<path d="M893 2344 c-36 -28 -14 -40 23 -12 45 33 45 34 24 34 -11 0 -32 -10
-47 -22z m32 6 c-3 -5 -16 -15 -28 -21 -19 -9 -19 -8 3 10 28 23 34 26 25 11z"/>
<path d="M560 2433 c-16 -21 -20 -23 -16 -8 5 17 3 16 -14 -5 -32 -40 -90
-128 -90 -137 0 -4 8 4 18 19 17 26 18 26 30 7 11 -17 9 -25 -15 -57 -15 -20
-20 -31 -10 -23 22 17 22 3 0 -24 -10 -12 2 -1 25 24 67 70 175 221 159 221
-3 0 -20 -24 -37 -52 -38 -61 -120 -161 -127 -154 -3 3 23 41 57 85 51 66 60
84 50 96 -6 8 -9 19 -5 25 13 21 -4 9 -25 -17z m13 -20 c-5 -12 -3 -14 7 -8 7
4 -6 -17 -30 -49 -23 -31 -44 -56 -46 -56 -2 0 -8 9 -14 20 -9 17 -6 27 16 55
14 19 30 33 34 30 4 -3 13 2 20 10 16 20 21 19 13 -2z"/>
<path d="M513 2368 c-12 -17 -19 -37 -16 -44 5 -13 18 0 63 61 14 18 14 19 -2
7 -9 -8 -17 -9 -20 -3 -1 5 -13 -4 -25 -21z m8 -21 l-23 -22 17 28 c10 15 20
25 23 22 3 -3 -5 -16 -17 -28z"/>
<path d="M1908 2293 c7 -3 16 -2 19 1 4 3 -2 6 -13 5 -11 0 -14 -3 -6 -6z"/>
<path d="M1868 2283 c7 -3 16 -2 19 1 4 3 -2 6 -13 5 -11 0 -14 -3 -6 -6z"/>
<path d="M1940 2280 c-18 -12 -2 -12 25 0 13 6 15 9 5 9 -8 0 -22 -4 -30 -9z"/>
<path d="M1731 2266 c-18 -10 -21 -15 -10 -20 8 -3 1 -4 -16 -1 l-30 4 34 -15
c18 -8 38 -13 45 -10 6 2 2 5 -9 5 -17 1 -17 3 -5 11 13 9 13 10 0 10 -9 1 -5
6 10 15 14 8 21 14 15 14 -5 0 -21 -6 -34 -13z"/>
<path d="M1805 2270 c-13 -5 -14 -9 -5 -9 8 0 24 4 35 9 13 5 14 9 5 9 -8 0
-24 -4 -35 -9z"/>
<path d="M1898 2263 c7 -3 16 -2 19 1 4 3 -2 6 -13 5 -11 0 -14 -3 -6 -6z"/>
<path d="M1825 2250 c-25 -11 1 -11 35 0 20 6 21 8 5 8 -11 0 -29 -3 -40 -8z"/>
<path d="M1778 2233 c7 -3 16 -2 19 1 4 3 -2 6 -13 5 -11 0 -14 -3 -6 -6z"/>
<path d="M1825 2220 c-13 -5 -14 -9 -5 -9 8 0 24 4 35 9 13 5 14 9 5 9 -8 0
-24 -4 -35 -9z"/>
<path d="M1778 2203 c7 -3 16 -2 19 1 4 3 -2 6 -13 5 -11 0 -14 -3 -6 -6z"/>
<path d="M1738 2193 c7 -3 16 -2 19 1 4 3 -2 6 -13 5 -11 0 -14 -3 -6 -6z"/>
<path d="M1705 2180 c11 -5 29 -8 40 -8 16 0 15 2 -5 8 -34 11 -60 11 -35 0z"/>
<path d="M1778 2183 c6 -2 18 -2 25 0 6 3 1 5 -13 5 -14 0 -19 -2 -12 -5z"/>
<path d="M1665 2170 c11 -5 27 -9 35 -9 9 0 8 4 -5 9 -11 5 -27 9 -35 9 -9 0
-8 -4 5 -9z"/>
<path d="M1620 2160 c8 -5 24 -9 35 -9 l20 0 -20 9 c-11 5 -27 9 -35 9 -13 1
-13 0 0 -9z"/>
<path d="M741 2017 c3 -4 43 -30 90 -60 46 -29 96 -61 112 -71 15 -10 27 -16
27 -13 0 3 -42 32 -92 65 -90 57 -149 91 -137 79z"/>
<path d="M700 2006 c0 -3 14 -12 30 -21 17 -9 30 -13 30 -11 0 3 -13 12 -30
21 -16 9 -30 13 -30 11z"/>
<path d="M775 1963 c6 -6 33 -23 60 -38 28 -16 46 -24 40 -18 -5 6 -32 23 -60
38 -27 16 -45 24 -40 18z"/>
<path d="M780 1896 c0 -3 14 -12 30 -21 17 -9 30 -13 30 -11 0 3 -13 12 -30
21 -16 9 -30 13 -30 11z"/>
<path d="M870 1845 c14 -8 30 -14 35 -14 6 0 -1 6 -15 14 -14 8 -29 14 -35 14
-5 0 1 -6 15 -14z"/>
<path d="M990 1835 c-17 -10 -20 -14 -9 -15 9 0 22 7 29 15 15 18 12 18 -20 0z"/>
<path d="M1350 1789 c0 -3 11 -20 25 -39 14 -19 25 -30 25 -24 -1 10 -50 73
-50 63z"/>
<path d="M1340 1968 c24 -27 45 -48 47 -48 8 0 0 9 -44 50 l-48 45 45 -47z"/>
<path d="M2185 1940 c-25 -11 1 -11 35 0 20 6 21 8 5 8 -11 0 -29 -3 -40 -8z"/>
<path d="M2278 1933 c12 -2 30 -2 40 0 9 3 -1 5 -23 4 -22 0 -30 -2 -17 -4z"/>
<path d="M2195 1920 c-25 -11 1 -11 35 0 20 6 21 8 5 8 -11 0 -29 -3 -40 -8z"/>
<path d="M2363 1913 c9 -2 23 -2 30 0 6 3 -1 5 -18 5 -16 0 -22 -2 -12 -5z"/>
<path d="M2125 1900 c-13 -5 -14 -9 -5 -9 8 0 24 4 35 9 13 5 14 9 5 9 -8 0
-24 -4 -35 -9z"/>
<path d="M2293 1903 c9 -2 25 -2 35 0 9 3 1 5 -18 5 -19 0 -27 -2 -17 -5z"/>
<path d="M2223 1893 c9 -2 25 -2 35 0 9 3 1 5 -18 5 -19 0 -27 -2 -17 -5z"/>
<path d="M3691 1856 c2 -2 15 -9 29 -15 24 -11 24 -11 6 3 -16 13 -49 24 -35
12z"/>
<path d="M2785 1631 c-6 -5 -19 -12 -30 -15 -11 -3 -2 -3 20 1 22 3 76 9 120
13 l80 7 -90 2 c-50 0 -95 -3 -100 -8z"/>
<path d="M2878 1613 c12 -2 30 -2 40 0 9 3 -1 5 -23 4 -22 0 -30 -2 -17 -4z"/>
<path d="M2813 1603 c9 -2 23 -2 30 0 6 3 -1 5 -18 5 -16 0 -22 -2 -12 -5z"/>
<path d="M2353 1455 c0 -8 3 -13 5 -10 3 3 12 -1 21 -7 10 -8 9 -4 -3 10 -23
26 -23 26 -23 7z"/>
<path d="M2415 1370 c10 -11 20 -20 23 -20 3 0 -3 9 -13 20 -10 11 -20 20 -23
20 -3 0 3 -9 13 -20z"/>
<path d="M3195 1299 c61 -63 123 -130 138 -149 16 -19 25 -28 21 -20 -22 47
-182 223 -239 262 -16 12 20 -30 80 -93z"/>
<path d="M3104 1343 c3 -4 1 -12 -5 -19 -7 -9 -6 -20 6 -38 19 -29 27 -34 19
-12 -3 8 -1 17 5 20 6 4 7 14 4 24 -6 15 -3 14 16 -2 13 -12 19 -26 16 -35 -3
-8 -3 -12 1 -8 4 4 13 2 21 -4 7 -6 13 -7 13 -2 0 14 -68 76 -86 79 -9 1 -13
0 -10 -3z"/>
<path d="M12195 2519 c-4 -6 -5 -12 -2 -15 2 -3 7 2 10 11 7 17 1 20 -8 4z"/>
<path d="M11996 2447 c-10 -14 -16 -34 -13 -44 4 -14 5 -13 6 5 1 24 12 27 42
12 24 -14 25 1 0 31 l-18 23 -17 -27z"/>
<path d="M11895 2440 c-18 -8 -17 -9 7 -9 15 -1 32 -9 38 -18 9 -16 10 -15 8
7 -3 27 -21 34 -53 20z"/>
<path d="M5380 2430 c-9 -6 -10 -10 -3 -10 6 0 15 5 18 10 8 12 4 12 -15 0z"/>
<path d="M12051 2335 c-11 -19 -25 -35 -31 -35 -19 0 -50 -34 -50 -56 0 -31
-9 -35 -41 -19 -18 10 -26 20 -23 30 6 16 6 16 -53 20 -21 1 -53 7 -71 13 -29
10 -32 9 -28 -6 2 -9 7 -32 11 -49 4 -18 11 -36 17 -40 8 -4 9 0 5 13 -5 14
-2 12 12 -6 11 -13 17 -28 15 -32 -3 -4 1 -16 8 -27 9 -16 9 -23 -3 -37 -9
-11 -9 -15 -1 -10 6 4 12 3 12 -3 0 -6 -17 -15 -37 -20 -72 -20 -78 -17 -116
62 -19 39 -37 80 -41 90 -6 17 -9 17 -40 -10 -40 -33 -51 -52 -36 -67 5 -5 10
-18 10 -27 0 -10 8 -25 17 -35 10 -10 23 -27 28 -38 13 -26 47 -32 64 -12 9
11 18 13 30 7 9 -5 30 -11 46 -14 17 -3 42 -8 58 -12 22 -6 27 -4 27 12 0 22
40 48 62 41 7 -3 21 -1 31 4 21 11 70 85 63 96 -10 16 17 98 40 122 20 22 49
80 40 80 -2 0 -13 -16 -25 -35z m-208 -85 c15 0 16 -3 6 -22 -10 -19 -12 -20
-21 -4 -5 10 -19 22 -31 27 -20 9 -20 9 3 4 14 -2 33 -5 43 -5z m47 0 c0 -5
-5 -10 -11 -10 -5 0 -7 5 -4 10 3 6 8 10 11 10 2 0 4 -4 4 -10z m-2 -39 c3 -8
-1 -12 -9 -9 -7 2 -15 10 -17 17 -3 8 1 12 9 9 7 -2 15 -10 17 -17z m67 -90
c-11 -22 -23 -31 -40 -31 -16 0 -25 6 -25 15 0 11 7 14 23 10 18 -5 26 0 37
19 7 14 15 24 17 22 3 -2 -3 -18 -12 -35z m-85 -21 c0 -5 -4 -10 -10 -10 -5 0
-10 5 -10 10 0 6 5 10 10 10 6 0 10 -4 10 -10z"/>
<path d="M5230 2341 c-5 -11 -10 -28 -9 -38 1 -14 2 -13 7 4 7 21 9 22 34 9
l28 -15 -15 30 c-18 34 -30 37 -45 10z"/>
<path d="M14160 2321 c-215 -84 -294 -141 -401 -293 -78 -110 -124 -149 -196
-167 -135 -35 -203 -59 -366 -128 -176 -75 -292 -131 -284 -139 2 -3 61 18
130 46 191 76 240 70 446 -63 114 -73 175 -100 272 -117 59 -11 158 -8 217 7
24 6 30 23 8 23 -8 0 -64 33 -124 73 -62 42 -129 79 -155 85 -25 7 -108 17
-184 22 -76 6 -174 19 -218 29 l-79 17 75 32 c187 78 358 107 530 91 134 -13
231 -40 367 -103 177 -82 271 -106 410 -106 l73 0 72 -64 c40 -36 92 -80 117
-98 l45 -34 7 -104 c9 -122 37 -232 80 -312 35 -65 151 -192 170 -185 23 8 14
151 -16 241 -33 97 -86 205 -133 269 l-35 48 58 -34 c33 -19 102 -51 154 -72
52 -21 99 -42 104 -46 5 -5 18 -41 28 -81 25 -97 95 -239 157 -314 27 -34 78
-83 113 -109 67 -51 224 -132 235 -121 11 11 -27 44 -46 39 -31 -8 -103 59
-203 190 -54 70 -98 131 -98 134 0 7 139 -140 234 -247 32 -36 63 -67 69 -69
7 -2 -11 21 -39 50 -27 30 -56 63 -64 74 -13 19 8 2 110 -90 24 -22 -35 42
-133 143 -97 100 -177 188 -177 195 0 6 79 -67 175 -164 96 -96 175 -172 175
-169 0 4 -85 93 -190 198 -104 105 -190 189 -190 186 0 -4 -6 -1 -13 5 -8 6
-17 7 -21 3 -4 -4 -13 -7 -18 -7 -6 0 -13 -5 -15 -10 -2 -6 12 -11 32 -11 19
0 35 4 35 9 0 5 7 4 15 -3 8 -7 15 -17 15 -22 0 -6 -6 -5 -14 1 -12 10 -17 9
-24 -6 -5 -10 -7 -25 -4 -33 3 -9 1 -11 -4 -7 -5 5 -9 18 -9 29 0 12 -7 22
-17 24 -10 1 -18 0 -18 -2 0 -9 131 -211 155 -239 36 -41 27 -24 -44 80 -34
49 -61 94 -61 99 0 13 14 -4 112 -134 39 -52 85 -110 102 -127 45 -49 22 -40
-34 13 -28 26 -50 43 -50 38 0 -15 -61 50 -105 111 -56 79 -120 205 -96 190 5
-3 12 -1 16 5 4 6 10 8 15 5 5 -3 11 -1 15 5 4 6 11 8 16 5 17 -11 9 12 -11
30 -11 10 -17 22 -14 27 3 5 16 0 28 -11 12 -12 26 -19 29 -16 4 3 5 2 2 -2
-3 -3 3 -15 12 -26 13 -15 14 -18 3 -12 -22 11 205 -217 275 -278 33 -29 53
-43 45 -32 -14 18 -14 19 2 7 9 -8 15 -19 12 -27 -3 -7 -1 -16 5 -20 7 -4 11
5 11 23 0 37 -47 108 -124 186 -68 68 -204 181 -211 174 -2 -2 34 -35 82 -73
47 -39 106 -95 132 -125 39 -48 41 -51 11 -24 -146 129 -239 218 -235 225 3 4
-18 24 -47 44 -58 39 -55 42 18 20 59 -17 203 -41 302 -50 l72 -7 0 46 c0 25
-2 46 -5 46 -2 0 -21 -11 -41 -25 -27 -19 -50 -25 -88 -25 -91 0 -323 58 -461
114 l-57 23 103 6 c116 7 216 32 327 83 77 35 202 118 202 134 0 5 -15 17 -32
27 -27 15 -55 18 -148 17 -182 -2 -342 -57 -445 -155 -73 -69 -88 -73 -155
-38 -63 34 -204 134 -275 196 -56 48 -64 41 84 65 47 7 86 18 88 23 2 6 -27
16 -64 23 -38 7 -113 29 -168 48 -55 20 -122 42 -150 50 -69 20 -255 29 -338
16 -63 -10 -78 -9 -189 19 -66 17 -166 34 -222 38 -87 6 -97 9 -75 18 171 73
175 76 366 271 159 163 193 205 165 201 -4 0 -50 -17 -102 -38z m-20 -84 c-36
-34 -64 -65 -63 -69 2 -4 -17 -24 -42 -44 -24 -21 -42 -41 -39 -45 8 -14 -111
-102 -185 -135 -41 -19 -75 -33 -77 -31 -2 1 40 27 92 56 66 37 92 57 85 64
-7 7 -16 5 -30 -7 -11 -10 -22 -13 -25 -8 -8 13 18 34 29 24 5 -4 5 -1 1 5 -5
9 -2 11 7 7 8 -3 18 0 22 5 3 6 11 9 16 5 5 -3 23 6 40 20 17 14 27 26 23 26
-4 0 -16 -7 -26 -17 -10 -9 -20 -14 -23 -11 -3 3 42 45 100 93 58 48 105 89
105 92 0 7 -17 -6 -128 -100 -50 -43 -90 -83 -87 -88 4 -5 -2 -6 -11 -2 -15 5
-4 19 57 76 81 75 165 134 185 129 7 -1 15 2 19 8 3 5 9 10 13 10 4 -1 -22
-29 -58 -63z m-73 19 c-10 -8 -17 -16 -15 -19 2 -2 -32 -37 -74 -76 -43 -40
-76 -76 -75 -79 1 -4 -2 -9 -8 -11 -21 -7 -66 -43 -61 -49 9 -8 -15 -33 -26
-26 -5 3 -15 0 -23 -6 -8 -7 -15 -9 -15 -5 0 4 -8 1 -17 -6 -10 -8 1 8 25 34
24 26 40 51 38 56 -7 10 123 135 131 127 3 -3 27 9 52 28 41 30 66 43 81 45 3
0 -3 -6 -13 -13z m419 -463 l49 -8 -65 -6 -65 -6 77 1 c42 1 74 -2 70 -6 -10
-9 -182 -15 -182 -5 0 4 -24 7 -52 7 -29 0 -71 3 -93 7 -36 6 -38 7 -15 14 34
10 216 11 276 2z m99 -43 c-29 -7 -29 -8 -5 -10 17 -2 10 -5 -20 -10 -43 -7
-44 -7 -9 -8 24 -2 42 -10 57 -27 21 -24 21 -26 5 -33 -31 -12 -145 -6 -211
12 -95 25 -171 61 -149 69 10 4 16 3 13 -2 -7 -11 48 -22 71 -15 14 4 15 3 5
-4 -25 -17 68 -33 114 -20 33 10 35 13 15 16 -13 2 -28 -1 -34 -7 -6 -6 -18
-11 -26 -11 -23 0 33 28 66 33 16 3 1 3 -31 1 -33 -2 -57 -1 -53 2 6 6 138 21
192 21 l30 1 -30 -8z m105 -24 c66 -10 83 -25 24 -20 -31 2 -20 -2 31 -11 44
-7 87 -14 95 -15 35 -4 -40 -18 -95 -17 l-60 0 55 7 55 7 -61 1 c-41 1 -66 7
-74 17 -7 8 -9 15 -4 15 5 0 1 5 -8 11 -10 5 -18 15 -18 22 0 9 2 9 8 1 4 -6
27 -14 52 -18z m-303 -12 c-3 -3 -12 -4 -19 -1 -8 3 -5 6 6 6 11 1 17 -2 13
-5z m-777 -75 c-11 -8 -6 -9 23 -7 20 2 37 0 37 -4 0 -4 8 -8 18 -8 21 0 115
-31 110 -36 -3 -3 -88 11 -263 43 l-40 7 45 6 c76 12 87 11 70 -1z m-114 -27
c-3 -5 14 -9 37 -10 151 -3 287 -30 338 -68 18 -13 31 -24 28 -24 -3 0 -45 14
-94 30 -49 17 -94 30 -99 29 -6 0 40 -18 103 -40 63 -21 117 -41 120 -45 3 -3
-16 -3 -44 0 -37 4 -43 3 -25 -4 18 -6 10 -7 -25 -2 -27 4 -65 6 -83 6 -20 0
-28 3 -20 8 9 5 9 8 1 8 -6 0 -20 3 -30 6 -15 5 -15 4 -3 -5 13 -9 13 -11 0
-11 -27 0 -165 75 -162 89 1 7 -3 11 -10 8 -18 -6 -50 12 -43 24 4 5 8 9 11 9
3 0 3 -4 0 -8z m2209 -53 c41 -1 32 -4 -45 -14 -116 -16 -201 -37 -303 -77
-43 -16 -81 -28 -83 -25 -7 7 130 63 212 86 38 11 62 20 53 20 -51 2 -285 -91
-274 -109 4 -6 -1 -7 -12 -3 -13 4 -15 3 -7 -6 8 -9 33 -3 103 24 156 60 334
95 386 75 l30 -11 -25 -19 c-14 -11 -55 -32 -93 -48 -37 -16 -64 -31 -61 -35
3 -3 -2 -4 -13 -1 -10 2 -40 -3 -68 -11 -46 -14 -30 -14 41 -1 16 3 -11 -8
-61 -25 -75 -26 -109 -32 -200 -34 -60 -2 -98 -1 -82 1 15 3 27 9 27 13 0 4
12 6 28 4 15 -2 52 0 82 5 53 9 54 10 15 12 -46 2 -46 2 63 31 46 12 81 23 79
25 -2 2 -55 -9 -118 -25 -63 -16 -134 -31 -159 -34 -45 -6 -45 -6 -12 6 18 7
30 16 25 21 -4 5 -2 6 5 2 13 -8 146 23 138 31 -3 3 -30 -2 -61 -11 -48 -14
-58 -15 -75 -3 -20 14 -19 15 21 41 87 58 260 108 344 101 28 -3 73 -5 100 -6z
m-392 -186 c-7 -2 -21 -2 -30 0 -10 3 -4 5 12 5 17 0 24 -2 18 -5z m-244 -143
c55 -107 93 -224 85 -269 -4 -29 -3 -33 6 -21 10 13 11 12 6 -3 -3 -10 -6 -26
-6 -35 -1 -9 -22 39 -49 108 -62 162 -104 261 -108 256 -2 -2 6 -27 17 -56 11
-29 18 -55 15 -58 -3 -3 -5 1 -5 9 0 12 -2 11 -10 -1 -8 -11 -9 -7 -5 15 5 25
4 27 -5 12 -13 -20 -4 -53 43 -160 40 -90 45 -80 6 12 -17 40 -29 75 -26 77 2
3 17 -25 32 -60 15 -36 32 -63 36 -60 5 3 6 -2 3 -10 -3 -8 0 -25 6 -38 10
-20 10 -21 -3 -6 -8 10 -17 15 -20 12 -3 -3 -10 4 -17 15 -6 12 -14 20 -18 17
-4 -2 -8 6 -8 17 -1 12 -14 51 -29 87 -23 53 -26 69 -17 92 11 31 5 71 -10 62
-5 -3 -7 -20 -4 -37 5 -26 4 -28 -4 -12 -18 36 0 -45 26 -115 14 -39 18 -57 9
-46 -19 25 -53 131 -58 181 -3 22 -2 29 0 17 4 -22 6 -21 25 14 16 30 18 42 9
61 -8 18 -8 23 1 17 8 -5 9 -1 5 12 -14 38 32 -30 72 -106z m315 -93 c4 4 4
-1 0 -11 -5 -14 -4 -17 4 -12 7 4 12 5 12 2 0 -3 -4 -7 -10 -11 -5 -3 -16 8
-25 24 -18 36 -20 56 -2 23 7 -12 16 -19 21 -15z m-357 -9 c-3 -8 -6 -5 -6 6
-1 11 2 17 5 13 3 -3 4 -12 1 -19z m67 -100 c4 -12 -7 6 -24 41 -16 35 -30 69
-29 75 0 13 44 -82 53 -116z m548 -58 c62 -58 117 -104 123 -102 5 2 7 0 2 -4
-4 -4 3 -18 15 -31 12 -12 19 -26 16 -29 -4 -3 -73 60 -155 141 -168 167 -169
182 -1 25z m-33 -91 c62 -70 64 -74 15 -24 -33 33 -79 83 -103 110 -24 28 -41
41 -38 30 6 -18 5 -17 -12 3 -11 13 -18 29 -14 37 3 11 16 2 42 -29 20 -24 69
-81 110 -127z"/>
<path d="M14030 2139 l-35 -31 32 22 c29 19 50 40 41 40 -2 0 -19 -14 -38 -31z"/>
<path d="M13963 2065 c-12 -9 -26 -14 -30 -13 -4 2 -9 -1 -11 -7 -7 -19 13
-14 43 10 33 27 32 34 -2 10z"/>
<path d="M14000 2210 c-19 -16 -40 -28 -46 -26 -5 2 -37 -21 -70 -53 -33 -31
-49 -46 -34 -33 54 46 42 20 -20 -45 -37 -38 -21 -25 35 28 56 53 120 108 143
124 23 15 42 29 42 31 0 10 -18 1 -50 -26z m-50 -33 c0 -2 -15 -16 -32 -33
l-33 -29 29 33 c28 30 36 37 36 29z"/>
<path d="M14470 1696 l-35 -13 33 -7 c18 -5 36 -5 39 -2 4 3 -4 6 -17 6 -33 0
-22 6 25 13 28 5 34 4 20 -3 l-20 -9 20 1 c11 0 31 3 45 7 23 7 21 8 -15 14
-50 8 -52 8 -95 -7z"/>
<path d="M14578 1673 c6 -2 18 -2 25 0 6 3 1 5 -13 5 -14 0 -19 -2 -12 -5z"/>
<path d="M14528 1663 c6 -2 18 -2 25 0 6 3 1 5 -13 5 -14 0 -19 -2 -12 -5z"/>
<path d="M13550 1596 c0 -7 184 -84 215 -90 17 -4 8 2 -20 13 -27 10 -81 32
-119 50 -71 32 -76 34 -76 27z"/>
<path d="M13645 1580 c11 -5 27 -9 35 -9 9 0 8 4 -5 9 -11 5 -27 9 -35 9 -9 0
-8 -4 5 -9z"/>
<path d="M13600 1545 c36 -19 70 -34 75 -34 6 0 -19 15 -55 34 -36 19 -69 34
-75 34 -5 0 19 -15 55 -34z"/>
<path d="M13808 1493 c7 -3 16 -2 19 1 4 3 -2 6 -13 5 -11 0 -14 -3 -6 -6z"/>
<path d="M15573 1553 c9 -2 25 -2 35 0 9 3 1 5 -18 5 -19 0 -27 -2 -17 -5z"/>
<path d="M15655 1520 c-25 -11 1 -11 35 0 20 6 21 8 5 8 -11 0 -29 -3 -40 -8z"/>
<path d="M15690 1505 c-19 -7 -28 -13 -20 -13 8 0 31 6 50 13 19 7 28 13 20
13 -8 0 -31 -6 -50 -13z"/>
<path d="M15550 1489 c-35 -12 -43 -16 -20 -12 40 7 112 32 90 31 -8 0 -40 -8
-70 -19z"/>
<path d="M15555 1459 c-27 -10 -37 -17 -21 -14 31 7 97 33 81 33 -5 0 -32 -8
-60 -19z"/>
<path d="M15425 1455 c-39 -14 -40 -14 -5 -8 41 7 82 22 60 22 -8 0 -33 -7
-55 -14z"/>
<path d="M15413 1383 c9 -2 23 -2 30 0 6 3 -1 5 -18 5 -16 0 -22 -2 -12 -5z"/>
<path d="M15001 1317 c-1 -4 18 -44 41 -90 22 -45 56 -122 74 -172 38 -103 46
-103 10 1 -22 65 -124 278 -125 261z"/>
<path d="M5143 2339 c-28 -10 -30 -19 -4 -12 10 2 25 -3 35 -12 13 -13 16 -14
16 -2 0 23 -23 36 -47 26z"/>
<path d="M11775 2320 c-3 -5 -1 -10 4 -10 6 0 11 5 11 10 0 6 -2 10 -4 10 -3
0 -8 -4 -11 -10z"/>
<path d="M10949 2274 c-5 -15 -12 -32 -15 -38 -3 -6 3 0 13 13 16 23 26 51 17
51 -3 0 -9 -12 -15 -26z"/>
<path d="M5061 2257 c-13 -21 -12 -21 5 -5 10 10 16 20 13 22 -3 3 -11 -5 -18
-17z"/>
<path d="M5253 2205 c-24 -22 -43 -47 -43 -56 0 -26 -11 -29 -41 -14 -18 10
-26 20 -23 30 4 8 2 15 -2 15 -68 4 -105 10 -124 20 -21 11 -22 10 -16 -6 4
-11 10 -34 13 -52 3 -18 10 -35 16 -39 7 -4 8 1 3 13 -6 17 -6 18 9 3 8 -8 17
-25 20 -37 2 -12 7 -27 10 -32 4 -6 1 -18 -7 -27 -9 -12 -9 -15 0 -9 6 4 12 3
12 -3 0 -10 -61 -31 -93 -31 -11 0 -27 20 -45 58 -15 31 -30 59 -34 60 -5 2
-8 12 -8 22 0 30 -13 30 -48 -2 -34 -29 -34 -29 -21 -74 7 -24 17 -44 21 -44
4 0 14 -13 22 -28 16 -30 43 -36 69 -13 9 7 18 8 21 3 3 -5 25 -12 48 -14 24
-3 50 -7 58 -9 8 -2 14 2 15 8 0 18 43 46 60 39 18 -7 64 30 77 63 5 14 11 42
12 62 1 20 10 47 19 60 9 13 24 34 33 47 26 36 13 30 -33 -13z m-154 -51 c3
-3 -1 -10 -7 -16 -9 -9 -15 -8 -24 4 -7 9 -20 18 -28 22 -8 3 1 3 20 0 19 -4
37 -8 39 -10z m36 6 c-3 -5 -11 -10 -16 -10 -6 0 -7 5 -4 10 3 6 11 10 16 10
6 0 7 -4 4 -10z m-5 -35 c14 -16 10 -18 -14 -9 -9 3 -16 10 -16 15 0 14 16 11
30 -6z m65 -85 c-11 -21 -23 -30 -40 -30 -17 0 -23 4 -19 14 3 8 13 12 24 9
12 -3 22 3 29 16 7 12 14 21 17 21 2 0 -2 -13 -11 -30z m-285 0 c0 -5 -4 -10
-10 -10 -5 0 -10 5 -10 10 0 6 5 10 10 10 6 0 10 -4 10 -10z m210 -24 c0 -11
-19 -15 -25 -6 -3 5 1 10 9 10 9 0 16 -2 16 -4z"/>
<path d="M5025 2220 c-3 -5 -1 -10 4 -10 6 0 11 5 11 10 0 6 -2 10 -4 10 -3 0
-8 -4 -11 -10z"/>
<path d="M4256 2184 c-4 -9 -4 -19 -1 -22 2 -3 7 3 11 12 4 9 4 19 1 22 -2 3
-7 -3 -11 -12z"/>
<path d="M4240 2135 c0 -8 4 -15 10 -15 5 0 7 7 4 15 -4 8 -8 15 -10 15 -2 0
-4 -7 -4 -15z"/>
<path d="M10930 2113 c0 -29 12 -24 17 7 2 11 -2 20 -7 20 -6 0 -10 -12 -10
-27z"/>
<path d="M8229 2070 c-203 -44 -283 -85 -424 -221 -56 -53 -116 -104 -134
-114 -19 -10 -76 -21 -135 -26 -115 -11 -195 -26 -386 -74 -216 -54 -354 -76
-505 -81 l-140 -5 81 29 c123 43 166 74 298 209 67 69 147 141 179 160 31 20
57 40 57 44 0 11 9 12 -111 -12 -199 -39 -282 -86 -466 -261 -160 -152 -174
-159 -288 -133 -52 11 -80 14 -87 7 -7 -7 2 -14 28 -21 81 -21 208 -41 302
-47 135 -9 173 -31 283 -164 151 -183 252 -261 403 -309 104 -33 166 -47 166
-36 0 5 -24 33 -52 64 -29 31 -74 83 -99 117 -59 77 -130 124 -305 200 -78 33
-166 75 -195 92 l-53 30 60 7 c99 10 243 35 365 62 112 24 118 25 171 9 61
-18 132 -67 252 -175 85 -76 165 -121 261 -146 67 -17 195 -20 195 -5 0 6 -4
10 -10 10 -5 0 -50 38 -99 84 -48 46 -112 96 -141 111 -29 15 -110 40 -181 56
-71 16 -163 43 -206 61 l-77 32 42 13 c181 52 428 56 586 9 124 -37 215 -81
328 -160 153 -106 286 -158 463 -181 l50 -7 23 -71 c33 -103 90 -194 170 -269
66 -62 185 -134 203 -122 49 30 -104 286 -247 411 -34 30 -52 53 -43 53 9 0
60 -7 115 -15 54 -8 120 -15 145 -15 l46 0 38 -65 c129 -219 326 -353 568
-385 177 -23 178 -23 139 28 -16 20 -46 61 -68 90 -74 102 -254 211 -466 284
-54 18 -98 36 -98 39 0 3 51 9 113 12 124 7 265 34 379 72 66 22 81 24 129 15
53 -10 77 -21 290 -132 143 -76 220 -92 396 -86 74 3 139 10 145 16 7 7 -5 17
-38 32 -27 11 -89 45 -139 75 -116 70 -176 84 -399 96 -99 5 -199 13 -221 17
l-40 8 110 57 c61 31 167 93 235 139 117 76 129 82 188 86 55 4 116 -5 166
-24 12 -5 16 0 16 20 l0 25 -102 3 -101 3 73 48 c50 34 69 52 62 59 -7 7 -68
-29 -195 -116 -212 -144 -361 -229 -490 -281 -93 -37 -117 -41 -70 -10 45 30
123 107 154 151 16 23 49 93 75 155 60 148 79 185 120 236 30 36 42 63 30 63
-9 0 -145 -86 -193 -123 -60 -45 -148 -150 -186 -222 -15 -27 -52 -103 -82
-167 -65 -138 -88 -160 -185 -176 -109 -19 -260 -25 -386 -17 l-119 8 80 27
c177 59 335 171 436 307 45 61 47 69 17 77 -44 11 -90 6 -166 -20 -151 -51
-317 -170 -372 -268 -42 -74 -67 -98 -93 -90 -27 8 -156 70 -264 128 -106 56
-216 85 -361 95 -109 8 -123 11 -207 51 -49 23 -138 55 -198 70 l-107 27 84
22 c146 39 179 58 448 269 51 41 95 78 96 83 5 13 -30 10 -129 -11z m-72 -42
c-15 -5 -24 -14 -21 -20 4 -6 -1 -8 -12 -5 -11 4 -30 -1 -44 -9 -23 -14 -23
-14 -2 -9 12 4 22 4 22 2 0 -2 -49 -37 -110 -77 -93 -63 -108 -76 -98 -89 10
-13 10 -14 -2 -3 -18 15 -34 16 -24 0 4 -7 3 -8 -5 -4 -6 4 -19 2 -27 -5 -8
-6 -17 -9 -21 -6 -3 4 -13 2 -22 -4 -9 -6 2 5 24 25 22 20 39 40 38 46 -2 5 5
6 14 3 14 -6 14 -8 -3 -20 -10 -7 -15 -13 -11 -13 4 0 38 22 75 49 37 26 82
56 100 65 19 10 31 20 28 23 -3 3 -12 1 -19 -6 -8 -6 -23 -9 -33 -5 -16 5 -17
4 -4 -5 13 -11 13 -12 0 -10 -8 1 -22 1 -30 0 -13 -1 -13 -2 0 -12 13 -9 13
-10 0 -8 -8 1 -22 1 -30 0 -13 -1 -13 -3 0 -12 13 -9 12 -10 -3 -5 -10 3 -16
2 -12 -4 4 -6 -2 -7 -12 -4 -14 4 -15 3 -4 -4 16 -12 -3 -27 -21 -16 -7 5 -8
3 -3 -6 5 -9 4 -11 -4 -6 -9 6 -9 11 1 24 21 25 130 92 140 86 5 -3 20 2 34
11 31 20 93 44 114 44 8 -1 3 -5 -13 -11z m101 -5 c-8 -11 -64 -45 -238 -146
-25 -15 -40 -27 -35 -27 6 0 19 6 30 13 39 26 135 78 135 73 0 -3 -29 -22 -65
-44 -36 -21 -62 -41 -59 -44 10 -11 -85 -60 -162 -84 -117 -37 -110 -27 16 22
63 25 115 46 117 48 2 1 -10 3 -27 3 -18 0 -27 -4 -23 -11 3 -6 0 -5 -8 2 -16
15 -33 16 -23 0 5 -7 3 -8 -5 -3 -16 9 -16 9 107 93 61 42 97 73 90 76 -7 3
-4 4 7 1 11 -2 40 7 65 19 47 25 96 31 78 9z m-1288 -83 c-8 -5 -11 -10 -6
-10 5 0 0 -10 -12 -23 -12 -13 -20 -26 -17 -28 3 -3 -10 -19 -27 -35 -18 -16
-26 -21 -19 -11 19 24 -2 22 -24 -3 -10 -11 -15 -20 -10 -20 4 0 2 -6 -4 -13
-6 -8 -8 -16 -5 -19 3 -4 -16 -23 -43 -43 -26 -20 -47 -41 -46 -46 2 -4 -5 -5
-14 -2 -11 4 -14 2 -9 -5 4 -6 -4 -18 -17 -27 -34 -22 -136 -62 -177 -69 -29
-5 -27 -3 13 12 27 10 45 20 42 24 -4 4 4 4 17 1 15 -3 19 -2 10 4 -9 7 -1 14
25 27 71 33 194 119 185 128 -6 6 -28 -4 -56 -26 -75 -57 -298 -174 -282 -147
3 4 19 14 36 21 16 7 27 16 24 21 -3 5 1 12 9 15 7 2 14 11 14 19 0 18 -6 19
-27 3 -9 -7 -5 -2 10 11 14 14 24 28 23 33 -4 11 117 109 126 103 5 -2 17 5
27 16 21 23 100 67 89 50 -9 -16 -3 -14 50 16 27 15 45 21 41 15 -10 -16 5
-15 28 3 11 8 25 15 30 15 6 0 4 -5 -4 -10z m3044 -51 c-3 -5 -9 -7 -14 -4 -5
3 -9 -3 -9 -12 -1 -43 -8 -80 -20 -98 -12 -20 -12 -20 -6 0 16 46 15 48 -4 15
-23 -40 -26 -54 -9 -44 7 4 8 3 4 -5 -4 -6 -11 -9 -16 -6 -13 8 -21 -26 -9
-41 8 -10 4 -24 -20 -59 -17 -26 -29 -50 -26 -55 11 -18 -93 -125 -175 -179
-32 -21 -32 -20 5 11 73 60 145 131 145 141 0 6 -19 -7 -42 -28 l-43 -40 36
40 c70 77 123 155 112 166 -7 7 -25 -12 -54 -58 -24 -37 -80 -104 -124 -148
-44 -45 -70 -70 -57 -55 20 24 32 54 34 87 1 7 6 9 11 6 5 -3 7 0 5 8 -3 8
-11 13 -17 11 -7 -1 -10 2 -6 8 3 6 11 8 16 5 13 -9 11 9 -2 22 -8 8 -3 26 21
67 41 73 51 73 11 0 -31 -57 -32 -74 -7 -70 12 2 192 258 205 291 8 20 -38
-42 -109 -150 -86 -129 -106 -152 -62 -73 34 62 38 73 21 62 -17 -10 21 58 49
88 14 15 28 25 32 23 4 -2 22 14 39 35 18 22 36 38 40 35 5 -2 14 2 21 10 13
16 35 10 24 -6z m-572 -196 c-8 -3 -6 -10 9 -22 20 -16 20 -17 -48 -81 -37
-36 -68 -68 -68 -72 0 -3 -4 -10 -9 -15 -5 -5 -6 -3 -2 5 10 17 -2 15 -32 -7
-45 -31 -173 -92 -185 -88 -7 2 6 13 28 25 61 31 323 215 296 207 -16 -5 -21
-4 -17 4 4 6 15 11 24 11 15 1 15 2 -1 11 -15 9 -34 4 -90 -21 -88 -39 -332
-199 -305 -200 4 0 40 25 80 55 71 54 285 171 294 162 3 -3 -14 -16 -38 -29
-24 -14 -119 -73 -211 -131 -92 -59 -171 -107 -175 -107 -4 0 1 5 11 11 9 6
15 14 12 18 -14 23 165 158 285 216 40 18 65 36 58 39 -7 3 -4 4 8 1 12 -3 32
-1 45 4 13 5 29 10 34 10 6 -1 4 -3 -3 -6z m-182 -59 c-89 -47 -164 -100 -240
-169 l-45 -40 26 35 c36 49 150 133 243 180 108 55 120 50 16 -6z m150 2 c0
-8 -222 -158 -302 -204 -48 -27 -84 -53 -80 -57 4 -5 2 -5 -5 -1 -7 4 -27 -1
-45 -10 -68 -34 -6 9 202 140 196 124 230 143 230 132z m-1115 -105 c-6 -5
-28 -6 -50 -1 l-40 8 50 1 c29 1 45 -3 40 -8z m160 -26 c58 -20 63 -23 30 -20
-38 5 -38 4 -10 -5 17 -6 38 -8 48 -6 9 2 15 0 12 -4 -3 -5 9 -11 26 -15 20
-5 27 -10 19 -15 -8 -5 -3 -10 14 -14 44 -11 138 -48 133 -52 -7 -8 -258 77
-252 85 2 5 -12 12 -33 16 -30 6 -33 9 -17 15 15 5 10 8 -22 13 -23 4 -45 12
-48 17 -10 16 25 11 100 -15z m-912 -9 c-4 -5 6 -7 20 -4 16 3 24 1 20 -5 -4
-6 4 -8 20 -5 15 3 24 1 21 -3 -3 -5 1 -9 8 -9 18 0 134 -56 142 -68 3 -5 -26
3 -64 19 -39 15 -100 37 -137 49 -86 25 -104 37 -59 36 19 -1 32 -5 29 -10z
m779 -40 c6 4 8 3 5 -3 -3 -5 10 -17 29 -26 47 -23 57 -21 14 3 -46 25 -34 25
23 0 25 -11 53 -17 64 -14 15 5 16 4 3 -6 -12 -10 -11 -11 10 -6 35 7 61 -9
30 -19 -18 -6 -20 -9 -9 -16 8 -5 21 -8 29 -8 10 0 8 3 -5 9 -11 5 -15 9 -8 9
6 1 20 4 30 7 15 5 16 4 3 -6 -12 -10 -11 -11 8 -7 22 5 148 -31 139 -39 -2
-3 -17 0 -32 6 -15 6 -37 8 -49 5 -17 -5 -18 -4 -6 4 21 15 -5 15 -32 0 -28
-15 -162 29 -265 87 -92 53 -120 77 -45 40 29 -15 58 -24 64 -20z m988 39 c0
-7 -110 -80 -155 -103 -47 -24 -162 -62 -184 -62 -9 1 15 14 54 31 62 27 107
52 63 36 -43 -16 -51 -17 -28 -3 14 8 34 13 45 10 12 -2 57 16 110 45 103 56
95 52 95 46z m-1775 -45 c3 0 3 5 -1 11 -3 6 8 3 25 -6 17 -9 35 -14 39 -11
10 6 125 -35 180 -63 20 -10 48 -31 62 -46 l25 -28 -32 17 c-18 9 -33 14 -33
11 0 -2 20 -15 45 -28 l45 -22 -41 0 c-22 0 -35 1 -29 3 7 3 -18 17 -55 33
-36 15 -100 51 -142 79 -41 28 -77 49 -80 47 -6 -7 151 -105 211 -132 59 -27
57 -32 -4 -10 -23 8 -47 12 -53 8 -6 -4 -7 -1 -2 7 6 10 4 12 -9 7 -10 -4 -34
2 -56 13 -52 26 -172 129 -164 141 3 5 18 0 34 -11 15 -11 31 -20 35 -20z
m-673 -74 c7 4 8 3 4 -4 -5 -8 3 -11 25 -8 51 6 265 -113 256 -143 -1 -4 13
-20 31 -35 61 -52 32 -45 -48 11 -80 57 -102 85 -35 43 20 -12 38 -20 40 -18
8 8 -181 113 -200 110 -17 -2 -18 0 -5 9 13 9 13 10 0 6 -8 -2 -23 0 -32 5
-48 24 -4 -9 135 -100 83 -55 177 -123 207 -150 54 -49 54 -49 24 -47 -17 1
-37 6 -45 11 -8 5 -27 9 -43 10 -15 1 -48 16 -73 33 -24 17 -48 29 -53 26 -13
-8 -127 84 -179 145 -38 45 -41 50 -16 33 17 -12 50 -42 75 -68 25 -26 63 -61
85 -78 37 -28 38 -29 16 -4 -14 15 -22 27 -19 27 4 0 43 -25 88 -56 45 -31 83
-54 86 -51 3 3 -12 15 -33 28 -60 35 -174 121 -169 126 2 3 66 -36 140 -85 75
-50 134 -86 130 -81 -3 5 -74 55 -157 111 -84 55 -159 107 -168 114 -19 17
-33 18 -23 2 4 -7 3 -8 -5 -4 -6 4 -9 11 -7 15 3 4 -17 25 -44 45 -52 40 -68
60 -25 32 14 -9 31 -14 37 -10z m3498 -62 c66 -19 83 -32 38 -27 -22 2 -16 -2
17 -10 28 -7 64 -21 80 -30 l30 -17 -30 5 c-16 3 -2 -5 33 -19 89 -34 102 -53
16 -22 -22 7 -59 16 -84 20 -31 4 -23 0 28 -14 73 -19 135 -47 82 -36 -35 7
-99 14 -77 9 20 -5 23 -23 4 -23 -12 0 -130 29 -182 44 -11 4 -6 0 10 -8 40
-20 21 -20 -46 0 -53 16 -209 90 -209 99 0 3 25 -6 56 -20 41 -18 61 -22 74
-15 10 6 25 10 32 9 7 0 0 -5 -16 -11 l-30 -11 48 -19 c27 -10 51 -17 53 -14
2 2 -12 9 -33 16 -47 16 -26 32 31 25 22 -3 -14 10 -80 29 -66 19 -131 39
-145 45 -24 11 -24 11 6 6 16 -3 41 -1 55 5 32 13 170 5 239 -16z m-3315 -45
c5 -5 5 -9 0 -9 -10 0 -105 60 -105 67 0 5 89 -44 105 -58z m-70 -27 c-3 -3 5
-16 17 -29 12 -13 17 -23 12 -23 -14 0 -77 67 -80 85 -2 12 4 10 27 -6 17 -12
28 -24 24 -27z m1916 -59 c31 -32 69 -76 86 -98 42 -56 90 -140 74 -130 -9 5
-12 3 -9 -6 3 -8 10 -13 16 -12 5 1 8 -7 4 -19 -4 -16 -2 -19 8 -13 9 6 11 4
5 -5 -7 -11 -12 -8 -24 10 -32 48 -48 63 -54 53 -4 -6 3 -24 15 -39 20 -26 20
-27 2 -11 -11 9 -23 15 -26 12 -6 -6 -41 26 -90 84 -48 57 -49 44 -2 -17 l36
-47 -46 49 c-26 27 -62 75 -81 108 -36 61 -41 73 -26 64 12 -8 34 21 26 34 -3
6 -12 7 -18 3 -7 -4 -6 1 2 10 12 15 11 20 -3 35 -9 10 -13 21 -10 25 10 9 51
-23 115 -90z m436 22 c39 -4 175 -62 246 -105 111 -67 93 -64 -58 10 -150 74
-165 79 -229 71 -6 -1 -1 -8 10 -17 16 -13 16 -15 2 -10 -10 3 -20 0 -24 -6
-5 -7 -2 -8 6 -3 9 5 11 4 6 -3 -5 -8 -1 -10 11 -6 15 5 16 4 3 -6 -13 -10
-13 -11 2 -6 10 3 20 1 23 -4 4 -6 11 -10 16 -10 6 0 7 5 4 10 -11 17 3 11
102 -46 53 -30 139 -77 192 -104 53 -27 112 -59 131 -71 34 -21 34 -21 10 0
-14 11 -82 50 -151 86 -161 83 -332 185 -325 192 3 3 45 -17 93 -44 88 -51
171 -93 143 -73 -8 6 -48 29 -88 51 -41 23 -71 43 -69 46 14 13 362 -173 362
-194 0 -5 13 -21 28 -34 15 -13 29 -31 30 -39 2 -8 7 -21 11 -29 10 -16 -204
95 -337 175 -52 31 -95 51 -105 48 -13 -5 -14 -4 -3 4 19 13 3 19 -47 17 -25
0 -47 4 -54 12 -6 7 -7 13 -3 13 5 0 0 10 -11 22 -10 12 -14 18 -7 15 12 -7
26 7 29 31 2 8 -3 11 -12 8 -9 -3 -12 -2 -9 5 4 6 14 7 24 4 9 -4 30 -9 48
-10z m-83 -76 c-9 -15 37 -36 76 -35 21 1 38 -3 37 -8 -1 -6 7 -11 19 -12 11
0 54 -21 95 -46 41 -25 141 -80 222 -122 148 -78 178 -99 98 -71 -23 8 -39 10
-36 4 7 -10 -23 -6 -79 12 -15 5 -33 6 -40 2 -6 -3 -8 -3 -4 2 4 4 -25 31 -65
59 -40 29 -96 69 -125 90 -60 44 -64 60 -5 24 62 -40 159 -92 148 -81 -22 22
-187 113 -196 107 -5 -3 -24 5 -42 17 -17 12 -25 15 -17 7 12 -13 95 -74 270
-201 l25 -18 -25 7 c-39 10 -117 62 -220 148 -52 44 -81 65 -65 47 17 -18 65
-60 108 -94 42 -33 77 -62 77 -65 0 -5 -67 36 -122 75 -51 37 -161 153 -153
161 3 3 -5 17 -17 31 -19 22 -18 21 9 -3 18 -16 30 -33 27 -37z m126 41 c8 -5
11 -10 5 -10 -5 0 -17 5 -25 10 -8 5 -10 10 -5 10 6 0 17 -5 25 -10z m-35 -30
c3 -5 2 -10 -4 -10 -5 0 -13 5 -16 10 -3 6 -2 10 4 10 5 0 13 -4 16 -10z"/>
<path d="M7826 1825 c-11 -8 -15 -15 -9 -15 6 0 16 7 23 15 16 19 11 19 -14 0z"/>
<path d="M8083 1942 c-78 -48 -144 -89 -147 -92 -2 -3 7 -6 21 -7 15 0 21 2
14 6 -7 5 43 40 129 91 77 46 140 85 140 86 0 10 -25 -4 -157 -84z"/>
<path d="M6848 1848 c-59 -46 -148 -109 -199 -140 -51 -32 -89 -58 -85 -58 22
0 216 129 324 217 67 53 78 63 71 63 -3 0 -53 -37 -111 -82z"/>
<path d="M6755 1820 c-78 -56 -120 -82 -95 -59 25 23 72 61 105 85 32 24 55
44 51 44 -5 0 -29 -15 -55 -34 -25 -19 -49 -33 -53 -33 -9 3 -113 -83 -114
-94 -1 -5 -2 -10 -4 -11 -1 -2 -3 -11 -5 -21 -3 -14 8 -9 43 18 26 19 101 73
166 120 66 47 115 85 110 85 -5 0 -72 -45 -149 -100z m-135 -104 c0 -2 -7 -7
-16 -10 -8 -3 -12 -2 -9 4 6 10 25 14 25 6z"/>
<path d="M6909 1863 c-13 -16 -12 -17 4 -4 16 13 21 21 13 21 -2 0 -10 -8 -17
-17z"/>
<path d="M6670 1655 c-25 -13 -40 -24 -35 -24 6 0 30 11 55 24 25 13 41 24 35
24 -5 0 -30 -11 -55 -24z"/>
<path d="M9926 1776 c-30 -51 -89 -140 -131 -197 -42 -57 -60 -86 -40 -64 42
48 159 217 204 298 53 94 27 65 -33 -37z"/>
<path d="M9850 1764 c-18 -25 -30 -48 -27 -50 2 -3 15 12 28 33 13 21 27 44
32 51 4 6 6 12 3 12 -3 0 -19 -21 -36 -46z"/>
<path d="M9746 1553 c-6 -14 -5 -15 5 -6 7 7 10 15 7 18 -3 3 -9 -2 -12 -12z"/>
<path d="M8510 1450 c34 -11 60 -11 35 0 -11 5 -29 8 -40 8 -16 0 -15 -2 5 -8z"/>
<path d="M8430 1395 c14 -8 30 -14 35 -14 6 0 -1 6 -15 14 -14 8 -29 14 -35
14 -5 0 1 -6 15 -14z"/>
<path d="M8545 1360 c-13 -6 -15 -9 -5 -9 8 0 22 4 30 9 18 12 2 12 -25 0z"/>
<path d="M7485 1463 c26 -28 174 -133 187 -133 5 0 -23 23 -64 50 -40 28 -89
62 -108 77 -22 17 -28 19 -15 6z"/>
<path d="M7601 1436 c10 -9 189 -96 189 -91 0 5 -176 95 -186 95 -4 0 -5 -2
-3 -4z"/>
<path d="M10135 1321 c-16 -7 -15 -9 12 -14 17 -3 48 -4 69 -2 34 4 35 3 14
-5 -22 -9 -21 -9 9 -5 18 3 41 5 50 6 19 1 -97 28 -119 28 -8 0 -24 -4 -35 -8z
m58 -8 c-7 -2 -19 -2 -25 0 -7 3 -2 5 12 5 14 0 19 -2 13 -5z"/>
<path d="M10323 1293 c9 -2 23 -2 30 0 6 3 -1 5 -18 5 -16 0 -22 -2 -12 -5z"/>
<path d="M10280 1280 c14 -4 34 -8 45 -8 16 0 15 2 -5 8 -14 4 -34 8 -45 8
-16 0 -15 -2 5 -8z"/>
<path d="M10395 1254 c28 -7 55 -13 60 -13 17 2 -69 27 -90 27 -11 0 3 -6 30
-14z"/>
<path d="M10350 1230 c14 -4 34 -8 45 -8 16 0 15 2 -5 8 -14 4 -34 8 -45 8
-16 0 -15 -2 5 -8z"/>
<path d="M10340 1205 c19 -7 44 -14 55 -14 11 0 0 7 -25 15 -57 17 -77 17 -30
-1z"/>
<path d="M10428 1183 c6 -2 18 -2 25 0 6 3 1 5 -13 5 -14 0 -19 -2 -12 -5z"/>
<path d="M6942 1254 c10 -10 20 -15 24 -12 3 4 -5 12 -18 18 -22 12 -22 12 -6
-6z"/>
<path d="M8869 1173 c50 -56 107 -127 127 -158 20 -30 39 -53 42 -51 9 9 -87
132 -173 221 l-87 90 91 -102z"/>
<path d="M8809 1207 c12 -15 11 -20 -4 -37 -17 -19 -16 -21 15 -70 18 -29 36
-47 40 -41 3 6 22 -10 42 -37 20 -26 49 -58 64 -72 15 -14 2 7 -29 46 -62 77
-79 113 -23 47 19 -22 42 -40 50 -40 9 0 16 2 16 4 0 5 -149 185 -168 203 -14
14 -15 13 -3 -3z m78 -99 c66 -81 95 -125 41 -64 -33 37 -68 55 -68 35 0 -17
-17 -1 -39 36 -12 21 -15 34 -8 32 7 -1 11 6 11 16 -1 9 -1 17 1 17 1 0 29
-33 62 -72z"/>
<path d="M8826 1142 c-8 -13 18 -45 37 -48 13 -2 15 2 7 15 -13 26 -37 43 -44
33z"/>
<path d="M8960 990 c0 -16 28 -32 35 -20 4 6 4 14 1 18 -10 9 -36 11 -36 2z"/>
<path d="M9660 995 c36 -19 70 -34 75 -34 6 0 -19 15 -55 34 -36 19 -69 34
-75 34 -5 0 19 -15 55 -34z"/>
<path d="M9615 925 c11 -9 29 -21 40 -26 l20 -10 -20 16 c-11 9 -29 21 -40 26
l-20 10 20 -16z"/>
<path d="M9680 886 c0 -3 9 -10 20 -16 11 -6 20 -8 20 -6 0 3 -9 10 -20 16
-11 6 -20 8 -20 6z"/>
<path d="M10926 2055 c4 -8 8 -15 10 -15 2 0 4 7 4 15 0 8 -4 15 -10 15 -5 0
-7 -7 -4 -15z"/>
<path d="M4230 2036 c0 -8 5 -18 10 -21 6 -3 10 3 10 14 0 12 -4 21 -10 21 -5
0 -10 -6 -10 -14z"/>
<path d="M11446 2005 c-9 -26 -7 -32 5 -12 6 10 9 21 6 23 -2 3 -7 -2 -11 -11z"/>
<path d="M12535 1990 c-4 -6 -48 -31 -98 -55 -51 -24 -83 -44 -72 -44 11 0 34
8 51 17 17 9 54 29 82 44 50 27 73 48 53 48 -5 0 -13 -5 -16 -10z"/>
<path d="M4230 1981 c0 -5 5 -13 10 -16 6 -3 10 -2 10 4 0 5 -4 13 -10 16 -5
3 -10 2 -10 -4z"/>
<path d="M10737 1975 c-15 -10 -17 -21 -12 -44 9 -40 23 -40 17 -1 -2 17 1 37
8 45 15 19 11 19 -13 0z"/>
<path d="M10830 1955 c7 -8 16 -15 21 -15 5 0 6 7 3 15 -4 8 -13 15 -21 15
-13 0 -13 -3 -3 -15z"/>
<path d="M5790 1950 c-9 -6 -10 -10 -3 -10 6 0 15 5 18 10 8 12 4 12 -15 0z"/>
<path d="M4716 1925 c-9 -26 -7 -32 5 -12 6 10 9 21 6 23 -2 3 -7 -2 -11 -11z"/>
<path d="M5748 1926 c-20 -15 -23 -26 -8 -26 5 0 14 9 20 20 12 23 11 24 -12
6z"/>
<path d="M10957 1923 c3 -10 10 -24 16 -30 5 -7 6 -13 3 -13 -4 0 -2 -10 5
-22 10 -18 9 -20 -5 -15 -10 4 -15 3 -11 -3 3 -6 15 -10 26 -10 24 0 24 23 1
69 -18 37 -47 57 -35 24z"/>
<path d="M12174 1918 l-19 -23 23 19 c21 18 27 26 19 26 -2 0 -12 -10 -23 -22z"/>
<path d="M10890 1925 c0 -2 11 -15 25 -29 30 -30 34 -19 5 12 -20 21 -30 27
-30 17z"/>
<path d="M11408 1908 c-15 -23 -30 -68 -22 -68 6 0 46 82 41 86 -2 3 -11 -6
-19 -18z"/>
<path d="M4051 1901 c-9 -6 -11 -18 -6 -40 9 -43 20 -39 20 9 1 22 1 40 0 40
0 0 -6 -4 -14 -9z"/>
<path d="M4140 1885 c7 -8 19 -15 27 -15 13 0 13 3 3 15 -7 8 -19 15 -27 15
-13 0 -13 -3 -3 -15z"/>
<path d="M5635 1859 c-44 -21 -73 -39 -64 -39 26 0 149 63 149 76 0 5 7 8 -85
-37z"/>
<path d="M10746 1874 c-3 -8 -2 -12 4 -9 18 11 10 -7 -11 -26 -24 -20 -18 -39
12 -39 11 0 18 -4 15 -9 -3 -4 8 -7 25 -5 18 2 28 0 24 -6 -3 -6 1 -10 10 -10
8 0 18 -7 21 -15 4 -8 10 -12 15 -9 5 3 8 2 7 -3 -2 -4 0 -8 3 -8 12 0 49 -38
49 -50 0 -14 -32 -16 -41 -2 -4 5 -10 0 -14 -12 -3 -11 -13 -21 -21 -21 -18 0
-18 -14 1 -30 8 -7 15 -9 15 -5 0 5 9 0 20 -10 11 -10 20 -27 20 -37 0 -21 32
-38 38 -20 6 18 17 15 46 -14 38 -38 21 -53 -46 -43 -68 11 -244 23 -238 16 3
-3 37 -8 75 -12 90 -9 109 -12 170 -24 40 -8 55 -7 73 5 26 17 19 39 -22 72
-14 10 -29 34 -34 53 -6 19 -11 28 -11 21 -1 -7 -6 -10 -13 -6 -8 5 -9 2 -5
-9 7 -19 -1 -47 -13 -47 -5 0 -6 9 -3 20 4 14 0 20 -11 20 -9 0 -16 6 -16 14
0 8 -3 22 -7 31 -6 17 3 17 55 -2 22 -9 13 33 -14 63 -77 85 -96 103 -108 98
-8 -3 -20 11 -31 36 -22 48 -31 56 -39 34z"/>
<path d="M12291 1879 c-13 -5 -22 -12 -19 -14 6 -6 58 12 58 20 0 7 -11 5 -39
-6z"/>
<path d="M4692 1852 c-21 -42 -32 -72 -27 -72 8 0 46 81 43 90 -2 5 -9 -3 -16
-18z"/>
<path d="M12178 1853 c-16 -16 -28 -33 -28 -37 0 -5 -11 -18 -25 -30 -15 -13
-21 -26 -16 -34 6 -9 14 -6 34 14 14 14 29 35 32 45 4 10 15 19 25 19 10 0 22
5 25 10 3 6 2 10 -4 10 -5 0 -11 7 -13 16 -2 12 -9 9 -30 -13z"/>
<path d="M4260 1856 c0 -8 5 -18 11 -21 6 -4 8 -13 5 -21 -3 -8 -1 -14 4 -14
6 0 10 -5 10 -11 0 -5 -4 -7 -10 -4 -5 3 -10 2 -10 -3 0 -5 9 -12 20 -15 25
-6 26 13 3 65 -17 38 -33 50 -33 24z"/>
<path d="M4200 1857 c0 -3 11 -17 25 -31 14 -14 25 -22 25 -17 0 4 -11 18 -25
31 -14 13 -25 21 -25 17z"/>
<path d="M5384 1834 c-18 -14 -18 -15 4 -4 12 6 22 13 22 15 0 8 -5 6 -26 -11z"/>
<path d="M4075 1804 c4 -14 0 -24 -10 -28 -21 -8 -19 -36 3 -36 10 0 23 -5 30
-12 16 -16 26 -3 17 19 -5 10 -8 20 -7 23 0 3 -8 17 -19 30 -19 23 -20 23 -14
4z"/>
<path d="M5513 1813 c-13 -2 -23 -8 -23 -13 0 -10 38 -1 46 11 3 5 4 8 2 8 -2
-1 -13 -4 -25 -6z"/>
<path d="M5402 1787 c-12 -13 -22 -29 -22 -35 0 -6 -11 -19 -24 -28 -16 -10
-23 -21 -19 -31 5 -13 12 -9 35 18 45 54 47 56 40 64 -4 4 4 4 18 1 14 -4 20
-4 14 1 -6 4 -13 14 -15 21 -3 9 -11 6 -27 -11z"/>
<path d="M10750 1761 c0 -5 7 -15 17 -22 12 -10 17 -11 20 -2 2 7 11 9 19 6 8
-3 14 0 14 7 0 7 -8 10 -20 7 -11 -3 -23 -1 -26 4 -7 12 -24 12 -24 0z"/>
<path d="M4127 1727 c-3 -9 8 -18 29 -26 19 -7 32 -16 29 -21 -5 -7 24 -24 31
-17 5 4 -66 77 -76 77 -4 0 -10 -6 -13 -13z"/>
<path d="M10826 1732 c-7 -12 3 -42 14 -42 18 0 22 22 7 37 -9 9 -17 11 -21 5z"/>
<path d="M4070 1700 c0 -5 9 -14 20 -20 13 -7 20 -7 20 -1 0 6 7 8 15 5 8 -4
15 -1 15 6 0 7 -8 10 -20 7 -11 -3 -23 -1 -26 4 -7 12 -24 12 -24 -1z"/>
<path d="M4146 1671 c-5 -8 9 -61 16 -61 2 0 4 13 5 30 2 30 -11 48 -21 31z"/>
<path d="M4224 1635 c3 -8 0 -14 -6 -12 -6 1 -12 -3 -15 -10 -2 -6 6 -13 19
-15 18 -2 23 -10 24 -33 1 -16 -6 -36 -14 -44 -13 -13 -14 -13 -8 7 5 16 3 22
-7 22 -10 0 -18 14 -22 40 l-7 40 -20 -26 c-15 -19 -18 -28 -9 -37 6 -6 11 -7
11 -2 0 4 9 0 20 -10 11 -10 20 -23 20 -29 0 -6 4 -17 9 -25 8 -12 12 -13 26
-1 14 12 20 10 42 -12 14 -14 23 -30 20 -35 -7 -10 -47 -10 -107 1 -52 9 -132
15 -126 9 3 -3 54 -13 113 -23 78 -12 114 -14 131 -7 30 14 28 24 -13 63 -27
25 -38 46 -45 84 -5 28 -12 56 -15 61 -10 15 -28 10 -21 -6z"/>
<path d="M12800 1550 c0 -5 4 -10 9 -10 6 0 13 5 16 10 3 6 -1 10 -9 10 -9 0
-16 -4 -16 -10z"/>
<path d="M6074 1527 c-21 -26 -27 -43 -26 -70 0 -10 -4 -15 -10 -11 -6 4 -6
-2 1 -15 7 -12 9 -26 6 -31 -6 -9 29 -83 81 -170 l26 -45 -26 30 c-14 17 -38
49 -53 72 -27 41 -43 54 -43 34 0 -16 86 -124 136 -172 54 -52 126 -100 221
-148 71 -36 99 -40 89 -14 -4 10 -16 51 -27 93 -28 105 -77 191 -163 290 -62
72 -176 180 -189 180 -2 0 -12 -10 -23 -23z m147 -104 c71 -74 130 -153 123
-164 -3 -5 9 -27 27 -50 17 -22 29 -43 25 -46 -3 -4 2 -18 11 -32 9 -14 18
-39 19 -56 1 -16 5 -40 8 -52 6 -28 2 -28 -32 -4 -15 10 -30 19 -35 20 -20 2
-65 33 -93 63 -36 37 -167 238 -161 244 4 4 103 -116 197 -238 24 -32 46 -55
48 -53 2 2 -22 36 -53 75 -31 39 -55 73 -53 76 3 2 42 -39 88 -91 46 -52 85
-95 88 -95 6 0 -9 18 -128 155 -58 66 -127 149 -154 185 -56 74 -78 98 -52 57
9 -15 14 -33 10 -39 -4 -7 -3 -8 4 -4 8 5 10 1 5 -10 -5 -14 -8 -13 -24 7 -10
13 -19 21 -19 17 0 -9 125 -201 164 -252 26 -33 27 -37 8 -27 -29 15 -92 100
-147 197 -45 79 -54 101 -35 89 14 -9 13 8 -2 23 -9 9 -9 15 0 24 7 7 12 8 12
3 0 -6 4 -5 8 2 5 8 35 -21 90 -85 45 -53 110 -129 144 -167 35 -39 74 -84 86
-100 l24 -30 -19 33 c-11 18 -65 83 -121 145 -56 63 -124 142 -152 178 -62 77
-63 77 -55 58 4 -10 0 -16 -9 -16 -11 0 -12 5 -3 24 7 16 14 20 22 13 7 -5 14
-7 17 -5 3 3 59 -50 124 -117 142 -147 132 -129 -20 34 -60 65 -113 115 -119
111 -6 -3 -7 -1 -3 6 9 14 57 -23 137 -106z m-40 -123 c64 -80 72 -90 66 -90
-5 0 -109 127 -122 150 -11 20 1 7 56 -60z"/>
<path d="M6106 1479 c30 -50 284 -328 284 -312 0 5 -27 35 -61 68 -33 33 -97
104 -141 158 -73 87 -102 118 -82 86z"/>
<path d="M6060 1435 c0 -5 9 -21 20 -35 11 -14 20 -20 20 -15 0 6 -9 21 -20
35 -11 14 -20 21 -20 15z"/>
<path d="M12530 1533 c-41 -2 -81 -11 -109 -25 -49 -25 -126 -99 -148 -143 -9
-16 -24 -38 -34 -47 -23 -22 -82 -23 -113 -3 -30 20 -65 21 -151 5 -38 -8 -87
-14 -107 -14 -28 0 -38 -5 -41 -21 -3 -11 -13 -51 -22 -90 -30 -128 -53 -260
-44 -263 11 -4 -30 -72 -44 -72 -11 0 12 -20 24 -20 11 0 38 76 43 125 4 28
14 73 23 100 9 28 17 56 19 63 2 6 15 12 30 12 27 0 27 0 8 22 -10 12 -13 18
-6 14 7 -4 12 -2 12 7 0 9 11 14 30 15 38 1 50 9 50 33 0 16 -5 18 -27 13 -23
-5 -26 -4 -16 6 7 8 26 13 42 13 17 0 28 4 25 9 -3 4 1 8 9 8 8 0 17 -6 20
-14 3 -7 17 -13 31 -13 13 0 27 6 30 13 9 25 72 17 94 -11 11 -14 25 -25 32
-25 10 0 10 3 0 15 -7 9 -11 18 -8 21 3 2 13 -7 22 -20 11 -17 22 -23 34 -20
53 18 72 28 72 40 0 8 5 14 10 14 6 0 10 8 10 19 0 10 7 24 15 31 8 7 15 23
15 36 0 13 3 23 8 22 13 -3 82 44 82 56 0 13 72 48 106 52 12 1 36 10 53 18
36 19 31 19 73 2 18 -8 42 -10 52 -7 52 19 -58 32 -204 24z m-126 -110 c-10
-7 -25 -13 -34 -13 -9 0 -22 -6 -29 -12 -11 -11 -11 -9 0 9 15 25 48 42 68 35
11 -4 10 -8 -5 -19z m-74 -52 c0 -12 -20 -25 -27 -18 -7 7 6 27 18 27 5 0 9
-4 9 -9z m-27 -91 c-7 -26 -22 -35 -36 -21 -8 8 -6 15 9 26 26 20 33 19 27 -5z"/>
<path d="M5988 1503 c7 -3 16 -2 19 1 4 3 -2 6 -13 5 -11 0 -14 -3 -6 -6z"/>
<path d="M5741 1489 c-124 -13 -171 -47 -274 -193 -22 -31 -67 -35 -117 -9
-31 15 -42 15 -119 3 -48 -8 -100 -14 -118 -14 -23 0 -33 -5 -37 -20 -41 -157
-65 -286 -59 -319 3 -16 1 -27 -6 -27 -6 0 -11 -5 -11 -12 0 -6 -7 -19 -15
-28 -14 -16 -14 -18 -1 -23 21 -8 42 40 56 130 7 40 16 75 21 79 5 3 9 18 9
35 0 24 4 29 25 29 26 0 32 9 16 25 -10 11 6 29 27 31 6 1 21 2 32 3 13 0 20
8 20 21 0 17 -5 19 -25 14 -46 -11 -25 11 25 27 43 13 50 13 52 0 2 -8 13 -15
26 -16 14 -1 21 3 18 10 -2 6 2 12 10 13 58 6 69 3 91 -24 12 -15 25 -25 29
-21 4 3 1 13 -6 22 -7 8 -9 15 -5 15 4 0 15 -10 25 -22 16 -21 20 -21 59 -8
22 7 41 17 41 22 0 12 -18 10 -26 -3 -4 -7 -10 -7 -16 -1 -7 7 -5 16 7 28 14
14 18 15 25 3 5 -7 10 -11 12 -9 19 31 38 71 38 84 0 9 5 16 10 16 18 0 80 44
80 57 0 13 49 38 90 46 14 3 40 11 57 18 26 11 39 11 66 1 41 -15 73 -7 54 13
-7 8 -16 9 -23 4 -6 -5 -25 -4 -45 1 -18 6 -34 9 -34 9 0 -1 -38 -6 -84 -10z
m-107 -84 c-9 -14 -23 -25 -31 -25 -8 0 -11 -4 -8 -10 4 -6 -1 -7 -10 -3 -10
3 -21 0 -26 -8 -5 -9 -9 -10 -9 -2 0 14 48 53 66 53 8 0 14 5 14 10 0 6 5 10
10 10 6 0 3 -11 -6 -25z m-89 -75 c-3 -5 -10 -10 -16 -10 -5 0 -9 5 -9 10 0 6
7 10 16 10 8 0 12 -4 9 -10z"/>
<path d="M11113 1460 c27 -17 56 -30 65 -28 21 4 -45 45 -86 54 -21 4 -16 -1
21 -26z"/>
<path d="M4370 1446 c0 -7 79 -49 98 -52 6 -1 10 2 6 7 -10 17 -104 58 -104
45z"/>
<path d="M12862 1433 c2 -11 12 -18 25 -17 12 0 20 -2 18 -6 -7 -12 62 -39 86
-33 16 3 20 2 12 -4 -9 -6 34 -30 132 -75 79 -36 143 -62 140 -58 -2 4 -47 27
-100 50 -93 43 -125 68 -44 36 23 -9 43 -15 45 -13 6 6 -189 81 -216 83 -14 1
-29 2 -33 3 -11 1 2 21 14 21 6 0 7 -5 3 -11 -4 -7 0 -9 13 -5 26 8 158 -33
218 -68 47 -28 58 -40 28 -29 -10 3 7 -10 37 -28 30 -19 55 -40 55 -47 0 -7
19 -25 43 -41 33 -21 39 -30 28 -34 -9 -4 -28 -2 -42 3 -14 6 -36 7 -49 4 -14
-3 -43 3 -72 16 -26 12 -60 23 -74 25 -38 3 -146 67 -204 120 l-50 47 44 -31
c41 -28 70 -33 55 -9 -4 5 4 4 17 -2 31 -16 39 -25 16 -17 -11 4 -23 4 -29 1
-6 -4 24 -29 67 -56 42 -28 78 -48 81 -46 2 3 -14 15 -37 27 -75 42 -33 32 74
-19 58 -27 110 -50 114 -49 4 0 -43 25 -106 55 -63 30 -112 57 -108 60 6 6
226 -88 265 -114 12 -8 25 -13 27 -10 9 8 -375 190 -407 191 -9 1 -15 4 -13 7
2 3 -14 16 -36 28 l-39 23 0 -30 c0 -58 197 -187 345 -226 62 -17 245 -33 245
-22 0 4 -18 18 -39 31 -22 14 -76 60 -121 102 -94 87 -159 121 -307 159 -117
30 -126 30 -121 8z m208 -84 c13 -7 13 -8 0 -8 -8 0 -26 6 -40 15 l-25 15 25
-7 c14 -3 32 -10 40 -15z m-13 -52 c3 -4 1 -7 -6 -7 -7 0 -9 -4 -6 -10 10 -16
-8 -11 -34 9 l-23 18 31 -2 c17 -1 34 -5 38 -8z"/>
<path d="M11203 1412 c-7 -5 -2 -13 13 -25 19 -14 24 -15 24 -4 0 20 -23 37
-37 29z"/>
<path d="M3578 1373 c8 -3 5 -11 -10 -23 -18 -14 -26 -16 -38 -7 -9 7 -8 4 3
-9 9 -11 15 -23 12 -26 -8 -8 23 -30 33 -24 5 3 8 20 7 37 -2 18 3 33 10 35 7
3 42 -9 76 -26 35 -17 55 -24 45 -15 -43 33 -7 20 222 -81 17 -8 32 -12 32 -9
0 16 -325 147 -369 150 -20 2 -30 1 -23 -2z m102 -28 c14 -8 21 -14 15 -14 -5
0 -21 6 -35 14 -14 8 -20 14 -15 14 6 0 21 -6 35 -14z m-105 -25 c3 -6 -1 -7
-9 -4 -18 7 -21 14 -7 14 6 0 13 -4 16 -10z"/>
<path d="M4480 1374 c0 -8 32 -33 43 -34 10 0 4 23 -8 32 -12 9 -35 10 -35 2z"/>
<path d="M11250 1373 c0 -4 13 -17 28 -28 l27 -19 -16 24 c-16 24 -39 38 -39
23z"/>
<path d="M4540 1342 c0 -5 7 -15 15 -22 8 -7 15 -8 15 -2 0 5 -7 15 -15 22 -8
7 -15 8 -15 2z"/>
<path d="M3767 1279 c7 -7 15 -10 18 -7 3 3 -2 9 -12 12 -14 6 -15 5 -6 -5z"/>
<path d="M11350 1276 c0 -2 8 -10 18 -17 15 -13 16 -12 3 4 -13 16 -21 21 -21
13z"/>
<path d="M3825 1254 c41 -24 208 -95 212 -90 2 1 -45 24 -104 50 -126 55 -149
64 -108 40z"/>
<path d="M11394 1209 c3 -17 6 -36 6 -41 0 -5 4 -7 9 -4 5 4 8 -2 6 -11 -1
-11 -9 -17 -19 -15 -15 3 -16 0 -6 -17 6 -12 15 -21 21 -21 12 0 0 -52 -16
-65 -6 -5 -10 -16 -7 -24 3 -10 -1 -12 -16 -9 -16 4 -23 0 -28 -16 -4 -11 -6
-23 -5 -25 2 -2 -3 -8 -11 -13 -10 -7 -10 -9 2 -7 37 4 44 -1 24 -16 -19 -15
-19 -15 5 -35 13 -11 20 -20 15 -20 -4 0 5 -14 21 -30 22 -23 36 -29 52 -25
15 3 23 1 24 -7 3 -51 21 -78 53 -78 30 0 70 -42 55 -57 -6 -6 -9 -15 -5 -21
9 -14 63 -12 77 4 15 18 -1 39 -50 64 -41 20 -103 76 -118 105 -6 11 -20 49
-33 83 -23 66 -22 131 3 177 14 26 26 95 20 112 -3 7 -13 13 -23 13 -10 0 -23
7 -30 15 -21 25 -33 17 -26 -16z m-14 -249 c0 -5 -7 -10 -16 -10 -8 0 -12 5
-9 10 3 6 10 10 16 10 5 0 9 -4 9 -10z"/>
<path d="M4673 1204 c-3 -9 -1 -30 5 -47 12 -32 5 -58 -9 -36 -7 12 -9 12 -9
0 0 -8 6 -22 14 -30 15 -17 11 -71 -5 -71 -5 0 -6 -7 -2 -17 5 -13 2 -15 -15
-11 -12 4 -22 5 -22 4 0 0 -4 -17 -10 -36 l-10 -35 19 24 c12 16 21 20 25 12
4 -6 2 -11 -5 -11 -7 0 -9 -3 -6 -7 4 -3 0 -14 -9 -24 -14 -15 -13 -18 5 -31
12 -8 18 -18 15 -21 -12 -12 40 -46 69 -47 22 0 28 -4 25 -18 -4 -25 29 -73
46 -66 8 3 23 -5 35 -17 23 -25 27 -39 10 -39 -8 0 -8 -5 1 -15 15 -18 40 -19
64 -2 24 18 13 38 -37 65 -69 37 -103 75 -132 147 -30 77 -30 128 1 229 18 58
18 60 -1 70 -10 6 -27 19 -37 29 -17 16 -19 16 -25 1z"/>
<path d="M11960 1210 c0 -5 5 -10 11 -10 5 0 7 5 4 10 -3 6 -8 10 -11 10 -2 0
-4 -4 -4 -10z"/>
<path d="M5200 1186 c0 -9 5 -16 10 -16 6 0 10 4 10 9 0 6 -4 13 -10 16 -5 3
-10 -1 -10 -9z"/>
<path d="M15420 1157 c0 -2 15 -16 33 -33 l32 -29 -29 33 c-28 30 -36 37 -36
29z"/>
<path d="M11561 1074 c0 -11 3 -14 6 -6 3 7 2 16 -1 19 -3 4 -6 -2 -5 -13z"/>
<path d="M11680 1055 c-8 -9 -8 -15 -2 -15 12 0 26 19 19 26 -2 2 -10 -2 -17
-11z"/>
<path d="M4935 1039 c-11 -17 1 -21 15 -4 8 9 8 15 2 15 -6 0 -14 -5 -17 -11z"/>
<path d="M11575 1011 c5 -32 63 -126 79 -126 4 0 9 24 11 53 2 31 0 50 -6 47
-5 -4 -9 -17 -9 -31 0 -13 -4 -24 -8 -24 -12 0 -53 58 -63 89 -8 23 -8 22 -4
-8z"/>
<path d="M4830 1017 c0 -18 14 -50 31 -71 5 -6 18 -23 30 -38 11 -16 23 -28
27 -28 4 0 7 22 8 49 0 28 -3 48 -8 45 -4 -3 -8 -17 -8 -32 l-1 -27 -25 30
c-14 17 -32 44 -39 60 -10 20 -14 24 -15 12z"/>
<path d="M12567 964 c-8 -8 1 -24 14 -24 5 0 9 7 9 15 0 15 -12 20 -23 9z"/>
</g>
</svg>
